<svg enable-background="new 0 0 512 512" height="512" viewBox="0 0 512 512" width="512" xmlns="http://www.w3.org/2000/svg"><g id="_x34_6_Water_Leak_Sensor"><g><g><g><path d="m490.332 113.747h-41.008c-11.77 0-21.303 9.533-21.303 21.303v12.355h-344.042v-12.355c0-11.77-9.533-21.303-21.303-21.303h-41.008c-11.77 0-21.303 9.533-21.303 21.303v162.008c0 11.77 9.533 21.303 21.303 21.303h41.008c11.77 0 21.303-9.533 21.303-21.303v-12.355h148.162c2.13 0 4.048-1.225 4.9-3.142l10.385-23.434c.692-1.544.586-3.301-.213-4.739l-9.852-17.788 13.314-28.333 13.314 28.333-9.852 17.788c-.799 1.438-.906 3.195-.213 4.739l10.385 23.434c.959 2.13 3.195 3.301 5.272 3.142h158.44v12.355c0 11.77 9.533 21.303 21.303 21.303h41.008c11.77 0 21.303-9.533 21.303-21.303v-162.008c0-11.771-9.533-21.303-21.303-21.303zm-62.311 160.304h-155.405l-7.882-17.841 9.906-17.842c.799-1.491.905-3.301.16-4.846l-19.332-41.061c-1.864-4.048-7.722-4.048-9.587 0l-19.332 41.061c-.745 1.545-.639 3.355.16 4.846l9.906 17.842-7.935 17.841h-144.7v-115.995h344.042v115.995z"/><path d="m255.041 424.396c2.61 4.314 25.563 42.446 25.563 57.145 0 16.616-13.527 30.09-30.09 30.09s-30.09-13.474-30.09-30.09c0-14.699 22.901-52.831 25.563-57.145 1.918-3.142 7.137-3.142 9.054 0z"/><path d="m220.424 361.073c0-14.699 22.901-52.831 25.563-57.145 1.917-3.143 7.137-3.143 9.054 0 2.61 4.314 25.563 42.446 25.563 57.145 0 16.616-13.527 30.09-30.09 30.09-16.563.001-30.09-13.474-30.09-30.09z"/><path d="m278.262 102.03c0 12.302-9.959 22.368-22.262 22.368-12.302 0-22.315-10.066-22.315-22.368 0-12.249 10.012-22.262 22.315-22.262 12.302 0 22.262 10.013 22.262 22.262z"/><path d="m309.204 48.879c2.077 2.077 2.077 5.432 0 7.509-2.077 2.076-5.432 2.076-7.509 0-25.191-25.191-66.199-25.244-91.39-.053-2.077 2.076-5.432 2.076-7.509 0-2.077-2.077-2.077-5.432 0-7.509 29.345-29.345 77.063-29.292 106.408.053z"/><path d="m327.951 37.695c-2.077 2.076-5.432 2.076-7.509 0-35.576-35.576-93.36-35.576-128.882-.053-2.077 2.077-5.432 2.077-7.509 0s-2.077-5.486 0-7.563c39.677-39.623 104.225-39.623 143.901.053 2.076 2.077 2.076 5.486-.001 7.563z"/><path d="m290.511 67.572c2.077 2.077 2.077 5.485 0 7.563-2.077 2.076-5.485 2.076-7.562 0-14.859-14.912-39.038-14.912-53.896-.053-2.077 2.076-5.486 2.076-7.562 0-2.077-2.077-2.077-5.432 0-7.509 19.011-19.013 49.954-19.013 69.02-.001z"/></g></g></g></g></svg>