<svg id="Layer_1" enable-background="new 0 0 512 512" height="512" viewBox="0 0 512 512" width="512" xmlns="http://www.w3.org/2000/svg"><path d="m424 0h-336c-8.836 0-16 7.163-16 16v480c0 8.837 7.164 16 16 16h336c8.836 0 16-7.163 16-16v-480c0-8.837-7.164-16-16-16zm-320 32h152v448h-152zm304 448h-120v-448h120z"/><path d="m328 360c8.836 0 16-7.163 16-16v-176c0-8.837-7.164-16-16-16s-16 7.163-16 16v176c0 8.837 7.164 16 16 16z"/><path d="m216 256c-8.836 0-16 7.163-16 16v72c0 8.837 7.164 16 16 16s16-7.163 16-16v-72c0-8.837-7.164-16-16-16z"/><path d="m216 80h-72c-8.836 0-16 7.163-16 16v112c0 8.837 7.164 16 16 16h72c8.836 0 16-7.163 16-16v-112c0-8.837-7.164-16-16-16zm-16 112h-40v-80h40z"/></svg>