<svg id="Layer_1" enable-background="new 0 0 64 64" height="512" viewBox="0 0 64 64" width="512" xmlns="http://www.w3.org/2000/svg"><path d="m19.5 35.7c-.2-.5-.7-.8-1.2-.7-.5.2-.8.7-.7 1.2.2.8.6 1.6.9 2.4.2.4.7.8 1.3.5.5-.3.7-.8.5-1.3-.3-.7-.6-1.4-.8-2.1z"/><path d="m33 17.1v-12.7l2.3 2.3c.2.2 1 .6 1.4 0 .3-.4.4-1 0-1.4l-4-4c-.7-.6-1.3-.1-1.4 0l-4 4c-.4.4-.4 1 0 1.4s1 .4 1.4 0l2.3-2.3v12.6c-7.8.5-14 7-14 14.9 0 .6.4 1 1 1s1-.4 1-1c0-7.2 5.8-13 13-13s13 5.8 13 13-5.8 13-13 13c-3.5 0-6.8-1.4-9.3-3.9-.4-.4-1-.4-1.4 0s-.4 1 0 1.4c2.6 2.7 6 4.2 9.7 4.4v3c0 .6.4 1 1 1s1-.4 1-1v-3c7.8-.5 14-7 14-14.9 0-7.8-6.2-14.3-14-14.8z"/><path d="m35.3 57.3-2.3 2.3v-5.4c0-.6-.4-1-1-1s-1 .4-1 1v5.4l-2.3-2.3c-.4-.4-1-.4-1.4 0s-.4 1 0 1.4l4 4c.7.6 1.3.1 1.4 0l4-4c.4-.4.4-1 0-1.4s-1-.4-1.4 0z"/><path d="m37.4 39.2c-.4.3-.5.9-.2 1.4.5.7 1.2.3 1.4.2 2.8-2.1 4.4-5.4 4.4-8.8 0-.6-.4-1-1-1s-1 .4-1 1c0 2.8-1.3 5.5-3.6 7.2z"/><path d="m41.6 28.9c.5-.3.7-.8.5-1.3-.4-.9-.8-1.6-1.4-2.2-.4-.4-1-.5-1.4-.1s-.5 1-.1 1.4c.4.5.8 1.1 1 1.8.2.3.9.7 1.4.4z"/><path d="m40 17c.6 0 1-.4 1-1v-4c0-.6-.4-1-1-1s-1 .4-1 1v4c0 .6.4 1 1 1z"/><path d="m24 13c.6 0 1-.4 1-1v-4c0-.6-.4-1-1-1s-1 .4-1 1v4c0 .6.4 1 1 1z"/><path d="m14 9c-.6 0-1 .4-1 1v10c0 .6.4 1 1 1s1-.4 1-1v-10c0-.6-.4-1-1-1z"/><path d="m50 13c-.6 0-1 .4-1 1v8c0 .6.4 1 1 1s1-.4 1-1v-8c0-.6-.4-1-1-1z"/><path d="m46 1c-.6 0-1 .4-1 1v4c0 .6.4 1 1 1s1-.4 1-1v-4c0-.6-.4-1-1-1z"/><path d="m18 5c.6 0 1-.4 1-1v-2c0-.6-.4-1-1-1s-1 .4-1 1v2c0 .6.4 1 1 1z"/></svg>