<svg id="Capa_1" enable-background="new 0 0 512 512" height="512" viewBox="0 0 512 512" width="512" xmlns="http://www.w3.org/2000/svg"><g><g><circle cx="11.831" cy="62.049" r="8.081"/><circle cx="27.994" cy="126.699" r="8.081"/><circle cx="74.461" cy="94.374" r="8.081"/><circle cx="58.299" cy="159.024" r="8.081"/><circle cx="27.994" cy="256" r="8.081"/><circle cx="11.831" cy="191.35" r="8.081"/><circle cx="74.461" cy="223.675" r="8.081"/><circle cx="11.831" cy="449.951" r="8.081"/><circle cx="27.994" cy="385.301" r="8.081"/><circle cx="74.461" cy="417.626" r="8.081"/><circle cx="58.299" cy="352.976" r="8.081"/><circle cx="11.831" cy="320.65" r="8.081"/><circle cx="74.461" cy="288.325" r="8.081"/><path d="m139.111 231.175h96.976c4.143 0 7.5-3.358 7.5-7.5v-183.85c0-4.142-3.357-7.5-7.5-7.5h-96.976c-4.143 0-7.5 3.358-7.5 7.5v183.85c0 4.142 3.358 7.5 7.5 7.5zm39.825-15v-168.85h17.325v168.85zm49.651 0h-17.325v-168.85h17.325zm-81.976-168.85h17.325v168.85h-17.325z"/><path d="m131.611 472.175c0 4.142 3.357 7.5 7.5 7.5h96.976c4.143 0 7.5-3.358 7.5-7.5v-183.85c0-4.142-3.357-7.5-7.5-7.5h-96.976c-4.143 0-7.5 3.358-7.5 7.5zm47.325-7.5v-168.85h17.325v168.85zm49.651 0h-17.325v-168.85h17.325zm-81.976-168.85h17.325v168.85h-17.325z"/><path d="m485.85 151.196c-2.93-2.929-7.678-2.929-10.607 0s-2.929 7.678 0 10.606l7.4 7.4h-2.096c-3.391 0-4.667-.896-7.21-2.68-3.248-2.279-7.697-5.401-15.824-5.401s-12.576 3.122-15.824 5.401c-2.543 1.785-3.819 2.68-7.21 2.68-3.389 0-4.665-.896-7.207-2.68-3.248-2.28-7.697-5.401-15.823-5.401-2.376 0-4.429.272-6.238.706v-73.604c1.955-1.334 3.308-2.007 6.238-2.007 3.388 0 4.664.896 7.206 2.68 3.248 2.28 7.697 5.402 15.824 5.402 8.128 0 12.577-3.122 15.825-5.401 2.543-1.785 3.819-2.68 7.209-2.68s4.666.896 7.209 2.68c3.248 2.279 7.697 5.401 15.825 5.401h2.096l-7.4 7.4c-2.929 2.929-2.929 7.678 0 10.606 1.465 1.464 3.385 2.197 5.304 2.197s3.839-.732 5.304-2.197l20.203-20.203c2.929-2.929 2.929-7.678 0-10.606l-20.204-20.203c-2.93-2.929-7.678-2.929-10.607 0s-2.929 7.678 0 10.606l7.4 7.4h-2.096c-3.39 0-4.667-.896-7.21-2.68-3.248-2.279-7.697-5.401-15.824-5.401s-12.576 3.122-15.824 5.401c-2.543 1.785-3.82 2.68-7.21 2.68-3.389 0-4.665-.896-7.207-2.68-3.248-2.28-7.697-5.402-15.823-5.402-2.375 0-4.429.272-6.238.706v-44.222c0-15.274-12.427-27.7-27.7-27.7h-250.521c-15.273 0-27.7 12.426-27.7 27.7v336.06c0 4.142 3.357 7.5 7.5 7.5s7.5-3.358 7.5-7.5v-336.06c0-7.003 5.697-12.7 12.7-12.7h250.52c7.003 0 12.7 5.697 12.7 12.7v51.48c-.536.072-1.114.118-1.792.118-3.388 0-4.664-.896-7.206-2.68-2.071-1.453-4.635-3.246-8.323-4.357v-32.436c0-4.142-3.357-7.5-7.5-7.5h-96.976c-4.143 0-7.5 3.358-7.5 7.5v183.85c0 4.142 3.357 7.5 7.5 7.5h96.976c4.143 0 7.5-3.358 7.5-7.5v-44.668c3.223 2.257 7.642 5.196 15.529 5.196.621 0 1.213-.024 1.792-.058v28.776c0 4.142 3.357 7.5 7.5 7.5s7.5-3.358 7.5-7.5v-34.792c1.955-1.334 3.308-2.007 6.238-2.007 3.388 0 4.664.896 7.206 2.68 3.248 2.279 7.697 5.401 15.824 5.401 8.128 0 12.577-3.122 15.825-5.401 2.543-1.784 3.819-2.68 7.209-2.68s4.666.896 7.209 2.68c3.248 2.28 7.697 5.401 15.825 5.401h2.096l-7.4 7.4c-2.929 2.929-2.929 7.678 0 10.606 1.465 1.464 3.385 2.197 5.304 2.197s3.839-.732 5.304-2.197l20.203-20.203c2.929-2.929 2.929-7.678 0-10.606zm-160.287-103.871v168.85h-17.325v-168.85zm-49.65 0h17.325v168.85h-17.325zm81.976 168.85h-17.325v-168.85h17.325zm30.529-46.973c-3.388 0-4.664-.896-7.206-2.68-2.071-1.453-4.635-3.246-8.323-4.356v-73.064c3.223 2.257 7.642 5.196 15.529 5.196.621 0 1.213-.024 1.792-.059v74.845c-.536.072-1.114.118-1.792.118z"/><path d="m475.243 360.804c1.465 1.464 3.385 2.197 5.304 2.197s3.839-.732 5.304-2.197l20.203-20.203c2.929-2.929 2.929-7.678 0-10.606l-20.203-20.203c-2.93-2.929-7.678-2.929-10.607 0s-2.929 7.678 0 10.606l7.4 7.4h-2.096c-3.39 0-4.667-.896-7.21-2.68-3.248-2.279-7.697-5.401-15.824-5.401s-12.576 3.122-15.824 5.401c-2.543 1.785-3.82 2.68-7.21 2.68-3.389 0-4.665-.896-7.207-2.68-3.248-2.28-7.697-5.402-15.823-5.402-2.375 0-4.429.272-6.238.706v-72.502c0-4.142-3.357-7.5-7.5-7.5s-7.5 3.358-7.5 7.5v79.76c-.536.072-1.114.118-1.792.118-3.388 0-4.664-.896-7.206-2.68-2.071-1.453-4.635-3.246-8.323-4.357v-32.436c0-4.142-3.357-7.5-7.5-7.5h-96.976c-4.143 0-7.5 3.358-7.5 7.5v183.85c0 4.142 3.357 7.5 7.5 7.5h96.976c4.143 0 7.5-3.358 7.5-7.5v-44.668c3.223 2.257 7.642 5.196 15.529 5.196.621 0 1.213-.024 1.792-.058v51.655c0 7.003-5.697 12.7-12.7 12.7h-250.522c-7.003 0-12.7-5.697-12.7-12.7v-85.54c0-4.142-3.357-7.5-7.5-7.5s-7.5 3.358-7.5 7.5v85.54c0 15.274 12.426 27.7 27.7 27.7h250.52c15.274 0 27.7-12.426 27.7-27.7v-57.672c1.955-1.334 3.308-2.007 6.238-2.007 3.388 0 4.664.896 7.206 2.68 3.248 2.279 7.697 5.401 15.824 5.401 8.128 0 12.577-3.122 15.825-5.401 2.543-1.784 3.819-2.68 7.209-2.68s4.666.896 7.209 2.68c3.248 2.28 7.697 5.401 15.825 5.401h2.096l-7.4 7.4c-2.929 2.929-2.929 7.678 0 10.606 1.465 1.464 3.385 2.197 5.304 2.197s3.839-.732 5.304-2.197l20.203-20.203c2.929-2.929 2.929-7.678 0-10.606l-20.203-20.203c-2.93-2.929-7.678-2.929-10.607 0s-2.929 7.678 0 10.606l7.4 7.4h-2.096c-3.391 0-4.667-.896-7.21-2.68-3.248-2.279-7.697-5.401-15.824-5.401s-12.576 3.122-15.824 5.401c-2.543 1.785-3.819 2.68-7.21 2.68-3.389 0-4.665-.896-7.207-2.68-3.248-2.28-7.697-5.401-15.823-5.401-2.376 0-4.429.272-6.238.706v-73.604c1.955-1.334 3.308-2.007 6.238-2.007 3.388 0 4.664.896 7.206 2.68 3.248 2.28 7.697 5.402 15.824 5.402 8.128 0 12.577-3.122 15.825-5.401 2.543-1.785 3.819-2.68 7.209-2.68s4.666.896 7.209 2.68c3.248 2.279 7.697 5.401 15.825 5.401h2.096l-7.4 7.4c-2.929 2.928-2.929 7.677 0 10.606zm-149.68-64.979v168.85h-17.325v-168.85zm-49.65 0h17.325v168.85h-17.325zm81.976 168.85h-17.325v-168.85h17.325zm30.529-46.973c-3.388 0-4.664-.896-7.206-2.68-2.071-1.453-4.635-3.246-8.323-4.356v-73.064c3.223 2.257 7.642 5.196 15.529 5.196.621 0 1.213-.024 1.792-.059v74.845c-.536.072-1.114.118-1.792.118z"/></g></g></svg>