<svg height="512pt" viewBox="0 0 512 512" width="512pt" xmlns="http://www.w3.org/2000/svg"><path d="m497 353.671875c-30.4375 0-59.023438-11.742187-80.5-33.066406-21.46875-21.3125-33.289062-49.699219-33.289062-79.929688 0-8.285156-6.71875-15-15-15-8.285157 0-15 6.714844-15 15 0 30.230469-11.824219 58.617188-33.292969 79.929688-21.476563 21.324219-50.0625 33.066406-80.5 33.066406-8.285157 0-15 6.714844-15 15s6.714843 15 15 15c62.742187 0 113.792969 50.839844 113.792969 113.328125 0 8.285156 6.714843 15 15 15 8.28125 0 15-6.714844 15-15 0-62.488281 51.046874-113.328125 113.789062-113.328125 8.285156 0 15-6.714844 15-15s-6.714844-15-15-15zm-128.789062 79.621094c-13.929688-27.863281-36.699219-50.601563-64.621094-64.539063 13.691406-6.789062 26.332031-15.804687 37.464844-26.859375 11.183593-11.101562 20.296874-23.71875 27.152343-37.390625 6.859375 13.671875 15.972657 26.289063 27.152344 37.390625 11.132813 11.054688 23.777344 20.070313 37.464844 26.859375-27.917969 13.9375-50.6875 36.675782-64.613281 64.539063zm0 0"/><path d="m205.234375 236.386719c-44.175781 0-80.117187-35.675781-80.117187-79.53125 0-8.28125-6.714844-15-15-15-8.285157 0-15 6.71875-15 15 0 43.855469-35.941407 79.53125-80.117188 79.53125-8.285156 0-15 6.71875-15 15 0 8.285156 6.714844 15 15 15 44.175781 0 80.117188 35.789062 80.117188 79.777343 0 8.28125 6.714843 15 15 15 8.285156 0 15-6.71875 15-15 0-43.988281 35.941406-79.777343 80.117187-79.777343 8.285156 0 15-6.714844 15-15 0-8.28125-6.714844-15-15-15zm-95.117187 54.511719c-9.566407-16.300782-23.230469-29.9375-39.570313-39.492188 16.339844-9.535156 30.003906-23.140625 39.570313-39.40625 9.566406 16.265625 23.230468 29.871094 39.570312 39.40625-16.339844 9.554688-30.003906 23.1875-39.570312 39.492188zm0 0"/><path d="m229.636719 103.65625c32.488281 0 58.921875 26.230469 58.921875 58.46875 0 8.28125 6.714844 15 15 15s15-6.71875 15-15c0-32.34375 26.433594-58.65625 58.921875-58.65625 8.285156 0 15-6.71875 15-15 0-8.285156-6.714844-15-15-15-32.488281 0-58.921875-26.230469-58.921875-58.46875 0-8.285156-6.714844-15-15-15s-15 6.714844-15 15c0 32.34375-26.433594 58.65625-58.921875 58.65625-8.285157 0-15 6.714844-15 15s6.714843 15 15 15zm73.957031-39.480469c6.472656 9.59375 14.78125 17.863281 24.421875 24.308594-9.675781 6.480469-18.007813 14.804687-24.492187 24.464844-6.472657-9.59375-14.78125-17.863281-24.421876-24.308594 9.675782-6.480469 18.011719-14.804687 24.492188-24.464844zm0 0"/></svg>