<svg xmlns="http://www.w3.org/2000/svg" data-name="Layer 1" viewBox="0 0 100 125" x="0px" y="0px"><title>Diesel particulate filter</title><rect x="-0.05" y="29.56" width="20.84" height="5.37" transform="translate(42.62 21.88) rotate(90)"/><rect x="79.21" y="29.56" width="20.84" height="5.37" transform="translate(121.88 -57.38) rotate(90)"/><rect x="79.21" y="65.07" width="20.84" height="5.37" transform="translate(157.38 -21.88) rotate(90)"/><rect x="-0.05" y="65.07" width="20.84" height="5.37" transform="translate(78.12 57.38) rotate(90)"/><rect x="7.71" y="72.8" width="84.61" height="5.37"/><rect x="7.71" y="21.83" width="84.61" height="5.37"/><path d="M73.11,71.25H64.9a4.28,4.28,0,0,1,8.21,0Z"/><path d="M59,71a4.28,4.28,0,1,1,4.28-4.28A4.28,4.28,0,0,1,59,71Z"/><path d="M66.3,57.8A4.26,4.26,0,0,0,69,65.37a4.39,4.39,0,0,0,1.5-.28Z"/><path d="M54.76,44a4.26,4.26,0,0,0,5.88,4l-4.23-7.32A4.25,4.25,0,0,0,54.76,44Z"/><path d="M63.32,55.38A4.28,4.28,0,1,0,59,59.66,4.28,4.28,0,0,0,63.32,55.38Z"/><path d="M45,28.21a4.28,4.28,0,0,0,4.11,3.11,4.32,4.32,0,0,0,1.72-.38l-1.57-2.73Z"/><path d="M83.86,75.06,53.71,22.84a5.48,5.48,0,0,1-2-.43l-3.36,1.94,2.23,3.86,1.57,2.73,5.62,9.73L62,48l5.66,9.81,4.21,7.29,7.31,12.65Z"/><path d="M49.07,42.67a4.28,4.28,0,1,1,4.28-4.28A4.28,4.28,0,0,1,49.07,42.67Z"/><path d="M49.07,54a4.28,4.28,0,1,1,4.28-4.28A4.28,4.28,0,0,1,49.07,54Z"/><path d="M49.07,65.37a4.28,4.28,0,1,1,4.28-4.28A4.28,4.28,0,0,1,49.07,65.37Z"/><path d="M53.19,71.25H45a4.29,4.29,0,0,1,8.23,0Z"/><path d="M39.1,37a4.28,4.28,0,1,1,4.28-4.27A4.28,4.28,0,0,1,39.1,37Z"/><path d="M39.1,48.31A4.28,4.28,0,1,1,43.38,44,4.28,4.28,0,0,1,39.1,48.31Z"/><path d="M39.1,59.66a4.28,4.28,0,1,1,4.28-4.28A4.28,4.28,0,0,1,39.1,59.66Z"/><path d="M39.1,71a4.28,4.28,0,1,1,4.28-4.28A4.28,4.28,0,0,1,39.1,71Z"/><path d="M29.13,31.32A4.27,4.27,0,0,1,25,28.21h8.22A4.3,4.3,0,0,1,29.13,31.32Z"/><path d="M29.14,42.67a4.28,4.28,0,1,1,4.28-4.28A4.28,4.28,0,0,1,29.14,42.67Z"/><path d="M29.14,54a4.28,4.28,0,1,1,4.28-4.28A4.28,4.28,0,0,1,29.14,54Z"/><path d="M29.14,65.37a4.28,4.28,0,1,1,4.28-4.28A4.27,4.27,0,0,1,29.14,65.37Z"/><path d="M33.25,71.25H25a4.28,4.28,0,0,1,8.22,0Z"/><path d="M19.17,37a4.28,4.28,0,1,1,4.28-4.27A4.28,4.28,0,0,1,19.17,37Z"/><path d="M19.17,48.31A4.28,4.28,0,1,1,23.45,44,4.28,4.28,0,0,1,19.17,48.31Z"/><path d="M19.17,59.66a4.28,4.28,0,1,1,4.28-4.28A4.28,4.28,0,0,1,19.17,59.66Z"/><path d="M19.17,71a4.28,4.28,0,1,1,4.28-4.28A4.28,4.28,0,0,1,19.17,71Z"/><text x="0" y="115" fill="#000000" font-size="5px" font-weight="bold" font-family="'Helvetica Neue', Helvetica, Arial-Unicode, Arial, Sans-serif">Created by Nikita Kravchuk</text><text x="0" y="120" fill="#000000" font-size="5px" font-weight="bold" font-family="'Helvetica Neue', Helvetica, Arial-Unicode, Arial, Sans-serif">from the Noun Project</text></svg>