<svg height="512pt" viewBox="0 -10 512.00024 512" width="512pt" xmlns="http://www.w3.org/2000/svg" id="fi_1831380"><path d="m506.097656 254.207031c-3.902344 3.875-9 5.8125-14.097656 5.8125-5.140625 0-10.277344-1.972656-14.1875-5.90625l-15.8125-15.917969v72.820313c0 11.046875-8.953125 20-20 20s-20-8.953125-20-20v-113.082031l-152.105469-153.109375c-7.464843-6.394531-18.457031-6.421875-25.949219-.054688l-153.972656 153.671875c.003906.191406.027344.382813.027344.578125v212c0 22.054688 17.945312 40 40 40h252c22.054688 0 40-17.945312 40-40 0-11.046875 8.953125-20 20-20s20 8.953125 20 20c0 44.109375-35.886719 80-80 80h-252c-44.113281 0-80-35.890625-80-80v-172.6875l-15.871094 15.839844c-7.816406 7.804687-20.480468 7.792969-28.285156-.027344-7.804688-7.816406-7.789062-20.480469.027344-28.28125l210.289062-209.878906c.269532-.269531.546875-.527344.828125-.78125 22.84375-20.335937 57.230469-20.261719 79.984375.167969.28125.253906.558594.519531.824219.785156l208.390625 209.765625c7.785156 7.835937 7.746094 20.5-.089844 28.285156zm-288.097656 132.8125c-.015625 3.144531 2.714844 5.011719 6.210938 5 2.453124-.011719 5.050781-.996093 6.761718-2.699219l94.410156-108.011718c8.195313-9.476563 1.578126-24.289063-11-24.289063h-46.316406l36.59375-59h-70.984375l-46.082031 82.164063c-7.53125 13.425781 2.246094 29.835937 17.71875 29.835937h40.175781l-26.875 74.488281c-.417969.914063-.609375 1.753907-.613281 2.511719zm0 0"></path></svg>