<?xml version="1.0" encoding="UTF-8"?>
<svg xmlns="http://www.w3.org/2000/svg" viewBox="0 0 60 60" width="512" height="512"><g id="Icons"><path d="M56,53V27a7.009,7.009,0,0,0-7-7H46V16A16.021,16.021,0,0,0,30,0,16.019,16.019,0,0,0,14,16v4H11a7.009,7.009,0,0,0-7,7V53a7.009,7.009,0,0,0,7,7H49A7.009,7.009,0,0,0,56,53ZM16,16A14.015,14.015,0,0,1,30,2,14.024,14.024,0,0,1,44,16v4H42V16a12,12,0,0,0-24,0v4H16Zm4,4V16a10,10,0,0,1,20,0v4ZM6,53V27a5.006,5.006,0,0,1,5-5H49a5.006,5.006,0,0,1,5,5V53a5.006,5.006,0,0,1-5,5H11A5.006,5.006,0,0,1,6,53Z"/><path d="M44,37.42a14.6,14.6,0,0,0-12.7-9.363,4.277,4.277,0,0,1,1.208-1.2,1,1,0,0,0-1.018-1.722,6.493,6.493,0,0,0-1.132.916,4.151,4.151,0,0,0-2.007-1.99,1,1,0,0,0-1.269.565,1.01,1.01,0,0,0,.541,1.3,2.7,2.7,0,0,1,1.289,2.113A14.614,14.614,0,0,0,16,37.42a5,5,0,0,0,0,9.16A14.7,14.7,0,0,0,30,56a14.7,14.7,0,0,0,14-9.42,5,5,0,0,0,0-9.16ZM42.91,44.855a1,1,0,0,0-.651.645A12.67,12.67,0,0,1,30,54a12.67,12.67,0,0,1-12.259-8.5,1,1,0,0,0-.651-.645,3,3,0,0,1,0-5.71,1,1,0,0,0,.651-.645A12.67,12.67,0,0,1,30,30a12.67,12.67,0,0,1,12.259,8.5,1,1,0,0,0,.651.645,3,3,0,0,1,0,5.71Z"/><path d="M28,39.5A3.5,3.5,0,1,0,24.5,43,3.5,3.5,0,0,0,28,39.5ZM24.5,41A1.5,1.5,0,1,1,26,39.5,1.5,1.5,0,0,1,24.5,41Z"/><path d="M35.5,36A3.5,3.5,0,1,0,39,39.5,3.5,3.5,0,0,0,35.5,36Zm0,5A1.5,1.5,0,1,1,37,39.5,1.5,1.5,0,0,1,35.5,41Z"/><path d="M34.457,47.12a1,1,0,0,0-1.345.42A3.392,3.392,0,0,1,30,49a3.4,3.4,0,0,1-3.111-1.458,1,1,0,0,0-1.784.905A5.316,5.316,0,0,0,30,51a5.316,5.316,0,0,0,4.9-2.553A.993.993,0,0,0,34.457,47.12Z"/><path d="M27.73,44.69a2.622,2.622,0,0,0,4.54,0,1,1,0,0,0-1.731-1,.642.642,0,0,1-1.078,0,1,1,0,0,0-1.731,1Z"/></g></svg>
