<svg height="512pt" viewBox="-8 0 511 512" width="512pt" xmlns="http://www.w3.org/2000/svg"><path d="m369.335938 374.550781c-4.140626 0-7.5 3.359375-7.5 7.5v12.453125c0 4.140625 3.359374 7.5 7.5 7.5 4.144531 0 7.5-3.359375 7.5-7.5v-12.453125c0-4.140625-3.355469-7.5-7.5-7.5zm0 0"/><path d="m274.523438 374.550781c-4.144532 0-7.5 3.359375-7.5 7.5v12.453125c0 4.140625 3.355468 7.5 7.5 7.5 4.140624 0 7.5-3.359375 7.5-7.5v-12.453125c0-4.140625-3.359376-7.5-7.5-7.5zm0 0"/><path d="m337.4375 384.859375c-1.265625-.832031-6.878906-2.992187-10.382812 2.152344-1.683594 2.464843-4.128907 2.761719-5.125 2.761719-.992188 0-3.484376-.269532-5.121094-2.761719-2.277344-3.460938-6.925782-4.425781-10.386719-2.152344s-4.425781 6.925781-2.152344 10.386719c3.917969 5.96875 10.519531 9.527344 17.660157 9.527344 7.140624 0 13.742187-3.558594 17.660156-9.527344 2.273437-3.460938 1.3125-8.113282-2.152344-10.386719zm0 0"/><path d="m396.949219 346.484375c-56.820313-30.75-67.09375-73.246094-68.871094-90.085937-3.617187-34.246094-32.023437-43.296876-46.539063-43.296876-22.109374 0-41.351562 15.761719-45.753906 37.476563-3.695312 18.214844-8.101562 47.222656-8.101562 81.964844 0 24.9375 1.109375 49.992187 3.300781 74.46875 2.375 26.539062 24.292969 46.550781 50.980469 46.550781h83.023437c28.226563 0 51.1875-22.964844 51.1875-51.191406v-23.730469c0-13.414063-7.367187-25.738281-19.226562-32.15625zm4.226562 55.886719c0 19.957031-16.234375 36.191406-36.1875 36.191406h-83.023437c-18.867188 0-34.359375-14.136719-36.039063-32.886719-2.152343-24.03125-3.242187-48.640625-3.242187-73.132812 0-33.496094 4.242187-61.441407 7.800781-78.984375 2.992187-14.75 16.054687-25.457032 31.054687-25.457032 1.164063 0 28.503907.339844 31.621094 29.871094 6.089844 57.648438 55.632813 90.328125 76.648438 101.703125 7.011718 3.796875 11.371094 11.0625 11.371094 18.964844v23.730469zm0 0"/><path d="m443.742188 299.277344c-.359376-23.171875-4.765626-58.652344-23.679688-96.089844-4.210938-8.335938-12.289062-13.613281-21.601562-14.117188-9.296876-.507812-17.863282 3.859376-22.929688 11.664063l-21.140625 32.570313c-7.925781 12.203124-8.398437 27.609374-1.234375 40.203124 8.035156 14.121094 22.464844 34.261719 45.589844 50.03125 4.890625 3.335938 17.433594 7.976563 29.855468 1.566407 9.597657-4.953125 15.3125-15.015625 15.140626-25.828125zm-22.253907 12.621094c-4.613281 2.484374-9.957031 2.203124-14.289062-.75-20.753907-14.15625-33.753907-32.316407-41.003907-45.058594-4.382812-7.699219-4.085937-17.136719.773438-24.617188l21.140625-32.570312c4.976563-7.890625 15.007813-6.21875 18.5625 1.046875 17.1875 35.117187 21.734375 67.964843 22.074219 89.5625.082031 5.265625-2.632813 9.894531-7.257813 12.386719zm0 0"/><path d="m418.632812 124.097656c6.144532-5.253906 10.046876-13.054687 10.046876-21.753906 0-14.011719-10.121094-25.699219-23.4375-28.152344v-39.960937c0-18.875-15.351563-34.230469-34.226563-34.230469h-64.894531c-18.875 0-34.230469 15.355469-34.230469 34.230469v39.960937c-13.3125 2.453125-23.433594 14.140625-23.433594 28.152344 0 8.140625 3.417969 15.492188 8.886719 20.710938-12.746094 13.910156-31.585938 37.554687-47.425781 69.925781-22.78125 46.542969-32.792969 96.902343-29.761719 149.679687.246094 4.304688.488281 8.496094.722656 12.578125h-109.777344c-4.140624 0-7.5 3.355469-7.5 7.5s3.359376 7.5 7.5 7.5h110.640626c.675781 11.734375 1.292968 22.457031 1.863281 32.253907h-128.351563c-21.917968 0-39.753906-17.835938-39.753906-39.753907 0-21.921875 17.835938-39.753906 39.753906-39.753906h97.894532c4.144531 0 7.5-3.359375 7.5-7.5 0-4.144531-3.355469-7.5-7.5-7.5h-97.894532c-30.191406 0-54.753906 24.5625-54.753906 54.753906 0 16.832031 7.640625 31.910157 19.632812 41.960938-11.488281 4.585937-19.632812 15.816406-19.632812 28.921875 0 9.4375 4.226562 17.914062 10.882812 23.625-6.65625 5.714844-10.882812 14.1875-10.882812 23.628906 0 17.160156 13.964844 31.125 31.125 31.125h388.234375c36.535156 0 66.824219-28.5625 68.960937-65.027344l.683594-11.636718c.238282-4.136719-2.914062-7.683594-7.050781-7.925782-4.136719-.246094-7.683594 2.914063-7.925781 7.050782l-.679688 11.636718c-1.671875 28.542969-25.386718 50.902344-53.988281 50.902344h-164.703125c-28.597656 0-52.3125-22.359375-53.984375-50.902344-.585937-9.976562-4.542969-78.183594-6.042969-104.296875-2.882812-50.171875 6.628906-98.027343 28.261719-142.230469 16.21875-33.144531 35.691406-56.597656 47.667969-69.234374 1.945312.417968 131.832031.535156 133.214844.328124 26.957031 28.515626 81.949218 100.855469 75.613281 211.136719-1.320313 23-2.460938 42.773438-3.445313 59.769531-.242187 4.132813 2.652344 8.140626 7.492188 7.933594 3.941406-.167968 7.25-3.078125 7.480468-7.066406.984376-16.996094 2.125-36.773438 3.449219-59.777344 6.402344-111.476562-46.835937-186.207031-76.230469-218.5625zm-206.40625 372.902344h-180.601562c-8.890625 0-16.125-7.234375-16.125-16.128906 0-8.890625 7.234375-16.125 16.125-16.125 4.144531 0 7.5-3.355469 7.5-7.5 0-4.144532-3.355469-7.5-7.5-7.5-8.890625 0-16.125-7.234375-16.125-16.128906 0-8.890626 7.234375-16.125 16.125-16.125h152.851562c.648438 11.171874 1.859376 31.332031 1.949219 32.253906h-115.324219c-4.140624 0-7.5 3.355468-7.5 7.5 0 4.144531 3.359376 7.5 7.5 7.5h118.523438c4.289062 12.867187 12.242188 24.019531 22.601562 32.253906zm93.894532-482h64.894531c10.601563 0 19.226563 8.625 19.226563 19.230469v39.476562h-103.351563v-39.476562c0-10.605469 8.625-19.230469 19.230469-19.230469zm-29.027344 100.980469c-7.519531 0-13.636719-6.117188-13.636719-13.636719s6.117188-13.636719 13.636719-13.636719h122.949219c7.519531 0 13.636719 6.117188 13.636719 13.636719s-6.117188 13.636719-13.636719 13.636719zm0 0"/></svg>