<svg id="Layer_1" enable-background="new 0 0 512.099 512.099" height="512" viewBox="0 0 512.099 512.099" width="512" xmlns="http://www.w3.org/2000/svg"><path d="m506.241 477.956c7.811 7.811 7.811 20.475 0 28.285-7.81 7.81-20.474 7.81-28.284 0l-76.143-76.143h-381.715c-26.508-.983-26.488-39.026 0-40h341.715l-62.725-62.725c-27.031 33.235-63.836 28.786-88.124-4.587-4.723-5.652-10.6-12.688-13.866-12.688-2.391 0-7.182 6.133-11.032 11.061-25.68 36.543-64.666 40.159-93.103 1.627-4.723-5.652-10.6-12.688-13.866-12.688-2.391 0-7.182 6.133-11.032 11.061-9.002 11.524-22.607 28.939-47.968 28.939-11.046 0-20-8.954-20-20s8.954-20 20-20c5.043 0 8.366-3.221 16.446-13.563 25.633-36.681 61.126-34.179 87.117.605 13.154 15.956 16.228 18.639 30.883-.605 25.633-36.681 61.126-34.179 87.117.605 12.055 14.479 15.7 19.004 28.988 1.794l-85.106-85.106c-25.794 36.289-64.664 38.887-92.58.958-4.723-5.652-10.6-12.688-13.866-12.688-2.391 0-7.182 6.133-11.032 11.061-9.002 11.524-22.607 28.939-47.968 28.939-11.046 0-20-8.954-20-20s8.954-20 20-20c5.043 0 8.366-3.221 16.446-13.563 25.633-36.681 61.126-34.179 87.117.605 13.154 15.956 16.229 18.638 30.884-.605.812-1.039 1.653-2.11 2.514-3.191l-63.245-63.245h-73.714c-26.508-.983-26.488-39.026 0-40h33.715l-47.857-47.858c-18.048-19.439 8.865-46.326 28.284-28.285zm-14.142-275.857c-3.612 0-9.363-6.884-14.437-12.958-26.054-34.862-61.542-37.211-87.117-.605-14.655 19.248-17.733 16.557-30.883.605-19.212-26.093-50.03-39.239-76.656-12.233-7.838 7.783-7.882 20.447-.099 28.284 7.783 7.839 20.447 7.882 28.284.099 2.547-2.53 3.686-3.085 3.957-3.19 3.276.069 9.118 7.062 13.816 12.687 28.501 38.614 67.496 34.827 93.103-1.627 3.85-4.928 8.641-11.061 11.032-11.061 3.266 0 9.143 7.035 13.866 12.688 9.629 11.526 22.817 27.312 45.134 27.312 11.046 0 20-8.954 20-20s-8.954-20.001-20-20.001zm-284-80h284c26.508-.983 26.488-39.026 0-40h-284c-26.508.983-26.488 39.026 0 40zm284 188c-3.612 0-9.363-6.884-14.437-12.958-23.673-32.407-58.745-37.359-83.065-5.709-6.996 8.547-5.738 21.147 2.81 28.144s21.149 5.738 28.145-2.81c4.891-5.976 6.65-6.667 7.548-6.667 3.266 0 9.143 7.035 13.866 12.688 9.629 11.526 22.817 27.312 45.134 27.312 11.046 0 20-8.954 20-20s-8.955-20-20.001-20z"/></svg>