<?xml version="1.0" encoding="UTF-8"?>
<svg xmlns="http://www.w3.org/2000/svg" id="Icons" viewBox="0 0 60 60" width="512" height="512"><path d="M56,0H4A4,4,0,0,0,0,4V56a4,4,0,0,0,4,4H56a4,4,0,0,0,4-4V4A4,4,0,0,0,56,0ZM4,2H56a2,2,0,0,1,2,2V8H2V4A2,2,0,0,1,4,2ZM56,58H4a2,2,0,0,1-2-2V10H58V56A2,2,0,0,1,56,58Z"/><path d="M44,40.48V27.522A3.031,3.031,0,0,0,42.508,24.9L31.5,18.4a3.021,3.021,0,0,0-3.006.006L17.5,24.891A3.035,3.035,0,0,0,16,27.522V40.48a3.058,3.058,0,0,0,1.492,2.626l11,6.479a2.96,2.96,0,0,0,3.018,0l11-6.481A3.058,3.058,0,0,0,44,40.48ZM29.5,20.135A1.012,1.012,0,0,1,30,20a.985.985,0,0,1,.489.129l10.8,6.37-10.8,6.362a.937.937,0,0,1-.979,0L18.71,26.5ZM18.51,41.385A1.052,1.052,0,0,1,18,40.48V28.4l10.487,6.177A3,3,0,0,0,29,34.8V47.564Zm22.982,0L31,47.564V34.8a2.86,2.86,0,0,0,.508-.216L42,28.4V40.48A1.052,1.052,0,0,1,41.492,41.384Z"/><path d="M7,25H9a2,2,0,0,0,2-2V19h4a2,2,0,0,0,2-2V15a2,2,0,0,0-2-2H8a3,3,0,0,0-3,3v7A2,2,0,0,0,7,25Zm0-9a1,1,0,0,1,1-1l7,0v2H10a1,1,0,0,0-1,1v5H7Z"/><path d="M15,49H11V45a2,2,0,0,0-2-2H7a2,2,0,0,0-2,2v7a3,3,0,0,0,3,3h7a2,2,0,0,0,2-2V51A2,2,0,0,0,15,49Zm0,4H8a1,1,0,0,1-1-1V45H9v5a1,1,0,0,0,1,1h5Z"/><path d="M52,13H45a2,2,0,0,0-2,2v2a2,2,0,0,0,2,2h4v4a2,2,0,0,0,2,2h2a2,2,0,0,0,2-2V16A3,3,0,0,0,52,13Zm1,10H51V18a1,1,0,0,0-1-1H45V15h7a1,1,0,0,1,1,1Z"/><path d="M53,43H51a2,2,0,0,0-2,2v4H45a2,2,0,0,0-2,2v2a2,2,0,0,0,2,2h7a3,3,0,0,0,3-3V45A2,2,0,0,0,53,43Zm0,9a1,1,0,0,1-1,1l-7,0V51h5a1,1,0,0,0,1-1V45h2Z"/><path d="M5,6H6A1,1,0,0,0,6,4H5A1,1,0,0,0,5,6Z"/><path d="M10,6h1a1,1,0,0,0,0-2H10a1,1,0,0,0,0,2Z"/><path d="M15,6h1a1,1,0,0,0,0-2H15a1,1,0,0,0,0,2Z"/><path d="M49,6h6a1,1,0,0,0,0-2H49a1,1,0,0,0,0,2Z"/></svg>
