<svg height="512" viewBox="0 0 128 128" width="512" xmlns="http://www.w3.org/2000/svg"><g><path d="m116.432 99.654c-.015-.037-.04-.068-.057-.1a1.68 1.68 0 0 0 -.1-.186 1.627 1.627 0 0 0 -.106-.145c-.021-.026-.036-.056-.06-.081s-.051-.045-.076-.069a1.545 1.545 0 0 0 -.127-.116 1.767 1.767 0 0 0 -.186-.129c-.041-.025-.08-.052-.123-.073a1.653 1.653 0 0 0 -.285-.112c-.019-.006-.035-.017-.054-.022l-.023-.006-8.814-2.323c-.043-.011-.086-.02-.13-.028l-7.527-1.386-4.4-5.265a1.736 1.736 0 0 0 -1.616-.613l-13.055 2.05a21.665 21.665 0 0 0 -9.526-11.9l.02-.021a124.327 124.327 0 0 0 16.135-3.889 1.748 1.748 0 0 0 1.228-1.67v-24.82a37.39 37.39 0 0 0 -74.78 0v24.82a1.75 1.75 0 0 0 1.23 1.672c2.2.681 4.4 1.3 6.594 1.857l-2.07.7a11.267 11.267 0 0 0 -7.634 10.671 11.08 11.08 0 0 0 1.018 4.668 11.231 11.231 0 0 0 13.182 6.191v21.311a1.75 1.75 0 0 0 1.75 1.75h52.16l41.7.06a1.75 1.75 0 0 0 1.75-1.75v-5.83a1.738 1.738 0 0 0 -.128-.656zm-48.475-23.268a21.929 21.929 0 0 1 -1.885 1.949 23.37 23.37 0 0 1 -15.912 6.225c-.321 0-.639-.015-.958-.028l7.906-4.75h.006a8.5 8.5 0 0 0 2.886-11.643 8.474 8.474 0 0 0 -10.794-3.333 5.314 5.314 0 0 0 -4.937-1.743 5.415 5.415 0 0 0 -4.226 3.593l-1.472 4.324-8.181 2.78c-.058-.09-.121-.176-.178-.267-.128-.2-.248-.412-.369-.62-.176-.3-.348-.606-.51-.914-.114-.218-.223-.438-.331-.659q-.223-.461-.427-.93c-.1-.228-.2-.457-.286-.688-.124-.315-.239-.634-.35-.954-.081-.234-.161-.468-.234-.7-.1-.327-.191-.658-.278-.99-.061-.235-.126-.469-.18-.706-.079-.347-.143-.7-.207-1.05-.041-.226-.087-.45-.122-.678-.058-.389-.1-.783-.137-1.177-.02-.194-.048-.386-.062-.581-.044-.589-.069-1.183-.069-1.781v-9.285a23.191 23.191 0 0 1 6.064-15.744 27.419 27.419 0 0 0 19.166 7.664c16.463 0 20.67 3.3 21.78 8.267v9.093q0 1.057-.094 2.1a23.373 23.373 0 0 1 -5.609 13.226zm-20.47 5.093-5.618-9.325 1.487-4.368a1.891 1.891 0 0 1 1.495-1.272 1.858 1.858 0 0 1 1.81.7l.72.921a1.75 1.75 0 0 0 2.288.418l.505-.308a4.972 4.972 0 0 1 6.826 1.697 5.03 5.03 0 0 1 .43.911c.016.045.02.092.034.138a4.983 4.983 0 0 1 .2.812 4.913 4.913 0 0 1 .042.945v.017a4.983 4.983 0 0 1 -2.4 4.014zm-31.217-9.2v-23.529a33.89 33.89 0 0 1 67.78 0v23.527c-3.59 1.082-7.195 2-10.773 2.726.027-.045.05-.092.077-.137.085-.143.161-.291.244-.436.277-.485.541-.978.788-1.48.1-.209.2-.42.3-.632q.332-.72.618-1.459c.074-.189.153-.376.222-.567.245-.671.467-1.351.658-2.041.031-.112.053-.226.082-.338q.231-.88.4-1.776c.043-.226.08-.453.117-.68q.128-.774.21-1.556c.023-.219.05-.436.067-.656.059-.725.1-1.452.1-2.185v-9.28a1.77 1.77 0 0 0 -.037-.356c-1.938-9.316-11.492-11.224-25.243-11.224a24.212 24.212 0 0 1 -17.907-7.851 1.748 1.748 0 0 0 -1.226-.548h-.047c-.016 0-.032 0-.048 0a1.66 1.66 0 0 0 -1.158.478 26.674 26.674 0 0 0 -8.344 19.5v9.28c0 .671.029 1.338.077 2 .016.217.044.43.065.645.043.446.091.891.156 1.332.037.251.083.5.127.749.071.4.148.806.238 1.2q.086.384.183.764c.1.393.21.782.327 1.169.075.246.149.492.231.735.135.4.285.8.439 1.195.085.218.164.438.254.653.205.487.428.966.662 1.441.057.115.105.234.164.349q.423.828.9 1.631l-.095.033c-3.498-.717-7.06-1.619-10.608-2.681zm10.068 22.721c-.1.064-.2.12-.339.2a7.756 7.756 0 0 1 -10.908-3.525 7.609 7.609 0 0 1 -.7-3.208 7.77 7.77 0 0 1 5.263-7.353l7.9-2.69h.013l.676-.232 10.528-3.584.406-.138 1.64 2.722 3.7 6.135-1.143.737c-.036.019-.072.04-.107.062zm50.912 23.89h-10.021v-19.618a1.75 1.75 0 0 0 -3.5 0v19.618h-35.139v-21.175l2.092-1.344 13.855-8.9c.163.035.329.06.493.092.184.036.368.072.554.1.321.055.644.1.968.146.181.024.361.051.542.072.35.039.7.068 1.055.094.157.012.314.028.472.037.511.029 1.024.045 1.539.045.762 0 1.518-.036 2.27-.1.055 0 .109-.007.164-.011.718-.065 1.43-.163 2.137-.284.084-.014.169-.026.253-.042.687-.124 1.366-.278 2.039-.454.1-.026.194-.05.291-.077q.994-.273 1.963-.622c.1-.036.2-.071.3-.108q.965-.359 1.9-.791c.092-.042.183-.086.274-.13.626-.3 1.241-.618 1.843-.965.078-.045.154-.092.231-.137.61-.36 1.209-.74 1.791-1.149.057-.04.113-.083.169-.123.6-.425 1.18-.871 1.744-1.347l.025-.02a18.113 18.113 0 0 1 9.193 11.737 17.835 17.835 0 0 1 .503 4.266zm41.7.057-38.2-.054v-12.758l7.392-4.314a1.75 1.75 0 0 0 -1.764-3.021l-5.628 3.284v-4.384c0-.5-.022-1-.055-1.49-.011-.15-.027-.3-.04-.447-.032-.35-.07-.7-.118-1.044-.011-.084-.016-.169-.028-.253l11.8-1.853 4.168 4.987a1.74 1.74 0 0 0 1.027.6l8.084 1.489 5.639 1.486-7.571 6.814-9.039-2.768a1.749 1.749 0 1 0 -1.025 3.345l9.986 3.06a1.75 1.75 0 0 0 1.684-.372l8.861-7.975 4.827 11.931z"/><path d="m65.063 47.262a1.748 1.748 0 0 0 -2.474 0l-2.248 2.248-2.249-2.248a1.749 1.749 0 0 0 -2.474 2.474l2.248 2.249-2.248 2.248a1.75 1.75 0 1 0 2.474 2.475l2.249-2.248 2.248 2.248a1.75 1.75 0 1 0 2.474-2.475l-2.248-2.248 2.248-2.249a1.748 1.748 0 0 0 0-2.474z"/><path d="m44.7 47.262a1.748 1.748 0 0 0 -2.474 0l-2.254 2.248-2.248-2.248a1.75 1.75 0 1 0 -2.475 2.474l2.251 2.249-2.249 2.248a1.75 1.75 0 1 0 2.475 2.475l2.248-2.248 2.249 2.248a1.75 1.75 0 1 0 2.477-2.475l-2.248-2.248 2.248-2.249a1.748 1.748 0 0 0 0-2.474z"/><path d="m105.253 65.173c2.133-2.561 3-4.632 2.744-6.52-.309-2.23-2.086-3.45-3.515-4.429-.951-.653-1.848-1.269-1.958-1.891-.054-.314.01-1.061 1.061-2.524a1.749 1.749 0 1 0 -2.842-2.041c-1.391 1.935-1.936 3.627-1.666 5.168.362 2.072 2.061 3.237 3.425 4.173.993.682 1.932 1.326 2.027 2.024.065.461-.106 1.568-1.966 3.8a1.75 1.75 0 0 0 2.69 2.24z"/><path d="m112.441 87.1a1.75 1.75 0 1 0 2.194 2.726c2.6-2.089 3.86-3.948 3.976-5.849.138-2.248-1.364-3.793-2.571-5.036-.8-.828-1.563-1.609-1.546-2.239.008-.319.219-1.038 1.538-2.265a1.751 1.751 0 0 0 -2.385-2.563c-1.747 1.626-2.613 3.175-2.647 4.74-.054 2.1 1.382 3.579 2.534 4.767.839.863 1.632 1.679 1.589 2.383-.033.464-.423 1.515-2.682 3.336z"/><path d="m99.093 86.717a1.752 1.752 0 0 0 2.354-.765c1.513-2.97 1.905-5.182 1.232-6.965-.794-2.106-2.8-2.9-4.408-3.542-1.072-.425-2.085-.828-2.328-1.41-.124-.294-.225-1.036.476-2.7a1.75 1.75 0 0 0 -3.225-1.361c-.927 2.2-1.084 3.965-.479 5.41.811 1.939 2.726 2.7 4.264 3.31 1.12.445 2.176.865 2.425 1.525.164.435.243 1.551-1.076 4.139a1.752 1.752 0 0 0 .765 2.359z"/></g></svg>