<svg id="Outline" height="512" viewBox="0 0 64 64" width="512" xmlns="http://www.w3.org/2000/svg"><circle cx="12" cy="35" r="1"/><path d="m10 30h4v2h-4z"/><circle cx="22" cy="35" r="1"/><path d="m20 30h4v2h-4z"/><path d="m28.85645 54.06543-6.85645-2.74255v-1.50715a2.994 2.994 0 0 0 1.87317-2.0003 11.95531 11.95531 0 0 0 5.12683-9.81543v-18a3.00328 3.00328 0 0 0 -3-3h-13a4.00624 4.00624 0 0 0 -3.873 3h-.127a4.00427 4.00427 0 0 0 -4 4v14a11.95715 11.95715 0 0 0 5.1272 9.81653 2.9939 2.9939 0 0 0 1.8728 1.99914v1.50721l-6.85645 2.74255a4.97628 4.97628 0 0 0 -3.14355 4.64257v3.292h2v-3.292a2.98506 2.98506 0 0 1 1.88574-2.78516l6.335-2.534a4.96816 4.96816 0 0 0 9.55848 0l6.335 2.534a2.98506 2.98506 0 0 1 1.88578 2.78516v3.292h2v-3.292a4.97628 4.97628 0 0 0 -3.14355-4.64257zm-6.85645-7.06543a1.001 1.001 0 0 1 -1 1h-8a1.001 1.001 0 0 1 -1-1v-6a1.001 1.001 0 0 1 1-1h8a1.001 1.001 0 0 1 1 1zm2-1.88184v-4.11816a2.97475 2.97475 0 0 0 -.21252-1.091l2.2799-1.70978a1.00375 1.00375 0 0 1 .59962-.19922h.333a9.95309 9.95309 0 0 1 -3 7.11816zm-17-21.11816a2.00229 2.00229 0 0 1 2-2v1h2v-2a2.00229 2.00229 0 0 1 2-2h13a1.001 1.001 0 0 1 1 1v6.13135l-.709-.47266a3.006 3.006 0 0 0 -2.39161-.41455l-6.65625 1.66455a.99948.99948 0 0 1 -.48632 0l-6.65625-1.66455a3.00791 3.00791 0 0 0 -2.39161.41455l-.70896.47266zm1.81836 3.32275a1.00138 1.00138 0 0 1 .79785-.13818l6.65625 1.66455a3.00654 3.00654 0 0 0 1.45508 0l6.65625-1.66455a1.00468 1.00468 0 0 1 .79785.13818l1.81836 1.21241v7.46484h-.333a3.01323 3.01323 0 0 0 -1.7998.6001l-2.39948 1.79962a2.96332 2.96332 0 0 0 -1.46772-.39972h-8a2.96384 2.96384 0 0 0 -1.46765.39966l-2.39856-1.79907a3.01551 3.01551 0 0 0 -1.80079-.60059h-.333v-7.46484zm-1.81836 10.67725h.333a1.006 1.006 0 0 1 .60058.19971l2.279 1.70929a2.97435 2.97435 0 0 0 -.21258 1.091v4.1181a9.95431 9.95431 0 0 1 -3-7.1181zm10 17a3.00328 3.00328 0 0 1 -3-3v-2h6v2a3.00328 3.00328 0 0 1 -3 3z"/><path d="m54 52a7.00818 7.00818 0 0 1 -7-7h4v-2h-7a7.00818 7.00818 0 0 1 -7-7h4v-2h-10v2h4a9.01016 9.01016 0 0 0 9 9h1a8.99511 8.99511 0 0 0 3.81152 7.3501 7.01328 7.01328 0 0 0 -4.81152 6.6499v3h2v-3a5.00588 5.00588 0 0 1 5-5h7v-2z"/><path d="m17 13v2h2v-2h4v-2h-6a9.01016 9.01016 0 0 1 -9-9h-2a11.01245 11.01245 0 0 0 11 11z"/><path d="m52.5 13.197h2v3.606h-2z" transform="matrix(.555 -.832 .832 .555 11.343 51.194)"/><path d="m52.5 8.197h2v3.606h-2z" transform="matrix(.555 -.832 .832 .555 15.503 48.968)"/><path d="m36.197 21.5h3.606v2h-3.606z" transform="matrix(.555 -.832 .832 .555 -1.8 41.637)"/><path d="m41.197 21.5h3.606v2h-3.606z" transform="matrix(.555 -.832 .832 .555 .427 45.797)"/><path d="m34.197 7.5h3.606v2h-3.606z" transform="matrix(.555 -.832 .832 .555 8.958 33.739)"/><path d="m31.197 3.5h3.606v2h-3.606z" transform="matrix(.555 -.832 .832 .555 10.951 29.462)"/><path d="m53.697 34h3.606v2h-3.606z" transform="matrix(.832 -.555 .555 .832 -10.093 36.664)"/><path d="m53.697 29h3.606v2h-3.606z" transform="matrix(.832 -.555 .555 .832 -7.32 35.824)"/></svg>