<svg id="Capa_1" enable-background="new 0 0 512 512" height="512" viewBox="0 0 512 512" width="512" xmlns="http://www.w3.org/2000/svg"><g><path d="m171 412c0 22.056 17.944 40 40 40s40-17.944 40-40-17.944-40-40-40-40 17.944-40 40zm60 0c0 11.028-8.972 20-20 20s-20-8.972-20-20 8.972-20 20-20 20 8.972 20 20z"/><path d="m391 66h-60c-5.523 0-10 4.478-10 10v110h-20c-4.044 0-7.691 2.437-9.239 6.173-1.548 3.737-.692 8.038 2.167 10.898l60 60c1.953 1.952 4.512 2.929 7.071 2.929s5.119-.977 7.071-2.929l60-60c2.86-2.86 3.715-7.161 2.167-10.898-1.546-3.736-5.193-6.173-9.237-6.173h-20v-110c0-5.522-4.477-10-10-10zm-30 175.857-35.858-35.857h5.858c5.523 0 10-4.478 10-10v-110h40v110c0 5.522 4.477 10 10 10h5.858z"/><path d="m91 236h30c5.523 0 10-4.478 10-10s-4.477-10-10-10h-30c-5.523 0-10 4.478-10 10s4.477 10 10 10z"/><path d="m91 176h30c5.523 0 10-4.478 10-10s-4.477-10-10-10h-30c-5.523 0-10 4.478-10 10s4.477 10 10 10z"/><path d="m91 116h30c5.523 0 10-4.478 10-10s-4.477-10-10-10h-30c-5.523 0-10 4.478-10 10s4.477 10 10 10z"/><path d="m121 36h-30c-5.523 0-10 4.478-10 10s4.477 10 10 10h30c5.523 0 10-4.478 10-10s-4.477-10-10-10z"/><circle cx="275" cy="476" r="10"/><path d="m251 40c0-22.056-17.944-40-40-40s-40 17.944-40 40v280.721c-36.164 15.832-60 51.662-60 91.279 0 55.141 44.86 100 100 100 9.449 0 18.802-1.318 27.8-3.917 5.306-1.533 8.365-7.077 6.832-12.383s-7.079-8.362-12.383-6.832c-7.193 2.078-14.679 3.132-22.249 3.132-44.112 0-80-35.888-80-80 0-33.556 21.439-63.724 53.35-75.068 3.987-1.417 6.65-5.19 6.65-9.422v-61.51h40v61.51c0 4.231 2.663 8.005 6.65 9.422 31.91 11.344 53.35 41.512 53.35 75.068 0 7.57-1.054 15.057-3.131 22.251-1.532 5.306 1.527 10.85 6.833 12.382 5.306 1.531 10.85-1.525 12.382-6.833 2.599-8.998 3.917-18.352 3.917-27.8 0-39.617-23.836-75.447-60-91.279v-280.721zm-60 206v-206c0-11.028 8.972-20 20-20s20 8.972 20 20v206z"/></g></svg>