<svg height="512pt" viewBox="-76 0 512 512" width="512pt" xmlns="http://www.w3.org/2000/svg"><path d="m270 364.578125v-27.578125c0-8.285156-6.714844-15-15-15s-15 6.714844-15 15v27.578125c-17.460938 6.195313-30 22.867187-30 42.421875 0 24.8125 20.1875 45 45 45s45-20.1875 45-45c0-19.554688-12.539062-36.226562-30-42.421875zm-15 57.421875c-8.269531 0-15-6.730469-15-15s6.730469-15 15-15 15 6.730469 15 15-6.730469 15-15 15zm0 0"/><path d="m64.394531 194.605469c2.925781 2.929687 6.765625 4.394531 10.605469 4.394531s7.679688-1.464844 10.605469-4.394531l50-50c5.859375-5.859375 5.859375-15.355469 0-21.210938-5.855469-5.859375-15.355469-5.859375-21.210938 0l-24.394531 24.390625v-132.785156c0-8.285156-6.714844-15-15-15s-15 6.714844-15 15v132.785156l-24.394531-24.390625c-5.855469-5.859375-15.355469-5.859375-21.210938 0-5.859375 5.859375-5.859375 15.355469 0 21.210938zm0 0"/><path d="m135 290.960938h-34.019531l17.011719-29.460938c4.140624-7.175781 1.683593-16.347656-5.492188-20.488281-7.175781-4.144531-16.347656-1.6875-20.488281 5.488281l-17.011719 29.460938-17.011719-29.460938c-4.140625-7.175781-13.3125-9.632812-20.488281-5.488281-7.175781 4.140625-9.632812 13.3125-5.488281 20.488281l17.007812 29.460938h-34.019531c-8.285156 0-15 6.714843-15 15 0 8.285156 6.714844 15 15 15h34.019531l-17.011719 29.460937c-4.140624 7.175781-1.683593 16.347656 5.492188 20.488281 2.359375 1.367188 4.941406 2.015625 7.484375 2.015625 5.183594 0 10.226563-2.691406 13.003906-7.503906l17.011719-29.460937 17.011719 29.460937c2.777343 4.8125 7.816406 7.503906 13.003906 7.503906 2.542969 0 5.121094-.648437 7.484375-2.011719 7.175781-4.144531 9.632812-13.316406 5.488281-20.492187l-17.007812-29.460937h34.019531c8.285156 0 15-6.714844 15-15 0-8.28125-6.714844-15-15-15zm0 0"/><path d="m345 150c8.285156 0 15-6.714844 15-15s-6.714844-15-15-15h-15v-30h15c8.285156 0 15-6.714844 15-15s-6.714844-15-15-15h-16.507812c-6.96875-34.191406-37.273438-60-73.492188-60-41.355469 0-75 33.644531-75 75v258.660156c-19.144531 19.574219-30 45.933594-30 73.339844 0 57.898438 47.101562 105 105 105s105-47.101562 105-105c0-27.40625-10.855469-53.765625-30-73.339844v-3.660156h15c8.285156 0 15-6.714844 15-15s-6.714844-15-15-15h-15v-30h15c8.285156 0 15-6.714844 15-15s-6.714844-15-15-15h-15v-30h15c8.285156 0 15-6.714844 15-15s-6.714844-15-15-15h-15v-30zm-90 332c-41.355469 0-75-33.644531-75-75 0-21.191406 9.117188-41.523438 25.015625-55.78125 3.171875-2.84375 4.984375-6.90625 4.984375-11.167969v-265.050781c0-24.8125 20.1875-45 45-45s45 20.1875 45 45v265.050781c0 4.261719 1.8125 8.324219 4.984375 11.167969 15.898437 14.257812 25.015625 34.589844 25.015625 55.78125 0 41.355469-33.644531 75-75 75zm0 0"/></svg>