<?xml version="1.0" encoding="UTF-8" standalone="no"?>
<!-- Generator: Adobe Illustrator 17.1.0, SVG Export Plug-In . SVG Version: 6.00 Build 0)  -->

<svg
   xmlns:dc="http://purl.org/dc/elements/1.1/"
   xmlns:cc="http://creativecommons.org/ns#"
   xmlns:rdf="http://www.w3.org/1999/02/22-rdf-syntax-ns#"
   xmlns:svg="http://www.w3.org/2000/svg"
   xmlns="http://www.w3.org/2000/svg"
   xmlns:sodipodi="http://sodipodi.sourceforge.net/DTD/sodipodi-0.dtd"
   xmlns:inkscape="http://www.inkscape.org/namespaces/inkscape"
   version="1.1"
   id="Capa_1"
   x="0px"
   y="0px"
   viewBox="0 0 92.9 92.9"
   style="enable-background:new 0 0 92.9 92.9;"
   xml:space="preserve"
   sodipodi:docname="motion.svg"
   inkscape:version="0.92.4 (5da689c313, 2019-01-14)"><metadata
   id="metadata43"><rdf:RDF><cc:Work
       rdf:about=""><dc:format>image/svg+xml</dc:format><dc:type
         rdf:resource="http://purl.org/dc/dcmitype/StillImage" /></cc:Work></rdf:RDF></metadata><defs
   id="defs41" /><sodipodi:namedview
   pagecolor="#ffffff"
   bordercolor="#666666"
   borderopacity="1"
   objecttolerance="10"
   gridtolerance="10"
   guidetolerance="10"
   inkscape:pageopacity="0"
   inkscape:pageshadow="2"
   inkscape:window-width="3840"
   inkscape:window-height="2066"
   id="namedview39"
   showgrid="false"
   inkscape:zoom="2.5403659"
   inkscape:cx="0.19682204"
   inkscape:cy="46.450001"
   inkscape:window-x="2869"
   inkscape:window-y="-11"
   inkscape:window-maximized="1"
   inkscape:current-layer="Capa_1" />
<g
   id="g6"
   transform="translate(-16.139407,0.78728815)">
	<path
   d="M 72.932,46.973 61.629,40.45 C 60.904,40.032 60.028,38.919 59.792,38.116 L 56.291,26.204 C 56.204,25.906 56.072,25.64 55.91,25.406 55.401,24.47 54.42,23.834 53.283,23.834 l -14.945,0.645 c -0.655,0.028 -1.264,0.276 -1.763,0.687 -0.1,0.061 -0.204,0.12 -0.294,0.189 l -10.155,7.832 c -1.173,0.905 -1.83,2.745 -1.494,4.188 l 4.021,17.3 c 0.335,1.444 1.717,2.534 3.212,2.534 0.101,0 0.203,-0.005 0.304,-0.015 l 1.501,-0.15 c 0.804,-0.081 1.53,-0.489 1.99,-1.121 0.461,-0.632 0.628,-1.448 0.459,-2.238 L 33.26,40.33 c -0.15,-0.701 0.23,-1.738 0.798,-2.175 l 1.809,-1.393 0.93,21.444 c 0.001,0.023 0.008,0.044 0.01,0.067 l -4.128,9.156 c -0.52,1.153 -1.826,2.75 -2.852,3.489 l -9.678,6.968 c -1.559,1.122 -2.148,3.366 -1.342,5.11 l 1.324,2.861 c 0.528,1.141 1.587,1.85 2.765,1.85 0.674,0 1.337,-0.229 1.917,-0.66 l 12.778,-9.515 c 1.273,-0.948 2.843,-2.793 3.574,-4.202 l 6.379,-12.286 c 0.051,-0.099 0.083,-0.205 0.125,-0.308 l 0.445,-0.019 10.441,28.786 c 0.737,2.032 2.703,3.398 4.892,3.398 0.52,0 1.034,-0.079 1.528,-0.236 l 0.644,-0.205 c 1.276,-0.405 2.301,-1.282 2.887,-2.47 0.585,-1.188 0.656,-2.536 0.2,-3.794 L 57.711,55.885 C 57.66,55.745 57.59,55.617 57.529,55.484 l -0.353,-8.134 12.122,6.297 c 0.426,0.222 0.906,0.339 1.389,0.339 1.122,0 2.149,-0.607 2.68,-1.584 l 0.721,-1.328 c 0.784,-1.441 0.265,-3.281 -1.156,-4.101 z"
   id="path2"
   inkscape:connector-curvature="0" />
	<path
   d="m 44.162,21.673 c 0.157,0 0.316,-0.003 0.475,-0.01 2.891,-0.125 5.561,-1.37 7.517,-3.503 1.956,-2.133 2.964,-4.901 2.839,-7.792 C 54.735,4.397 49.745,-0.249 43.698,0.01 c -2.891,0.125 -5.561,1.37 -7.517,3.503 -1.956,2.134 -2.964,4.901 -2.839,7.792 0.252,5.814 5.005,10.368 10.82,10.368 z"
   id="path4"
   inkscape:connector-curvature="0" />
</g>
<g
   id="g8">
</g>
<g
   id="g10">
</g>
<g
   id="g12">
</g>
<g
   id="g14">
</g>
<g
   id="g16">
</g>
<g
   id="g18">
</g>
<g
   id="g20">
</g>
<g
   id="g22">
</g>
<g
   id="g24">
</g>
<g
   id="g26">
</g>
<g
   id="g28">
</g>
<g
   id="g30">
</g>
<g
   id="g32">
</g>
<g
   id="g34">
</g>
<g
   id="g36">
</g>
<text
   xml:space="preserve"
   style="font-style:normal;font-weight:normal;font-size:40px;line-height:1.25;font-family:sans-serif;letter-spacing:0px;word-spacing:0px;fill:#000000;fill-opacity:1;stroke:none"
   x="80.398735"
   y="31.491526"
   id="text852"><tspan
     sodipodi:role="line"
     id="tspan850"
     x="80.398735"
     y="31.491526">!</tspan></text>
<path
   style="opacity:1;fill:none;fill-opacity:1;fill-rule:nonzero;stroke:#000004;stroke-width:18.598;stroke-linecap:square;stroke-linejoin:miter;stroke-miterlimit:4;stroke-dasharray:none;stroke-dashoffset:0.99999976;stroke-opacity:1;paint-order:stroke fill markers"
   id="path854"
   sodipodi:type="arc"
   sodipodi:cx="-64.92675"
   sodipodi:cy="24.474794"
   sodipodi:rx="4.526907"
   sodipodi:ry="5.3141952"
   sodipodi:start="4.712389"
   sodipodi:end="5.9341195"
   d="m -64.92675,19.160599 a 4.526907,5.3141952 0 0 1 4.253901,3.496634 l -4.253901,1.817561 z"
   transform="rotate(-144.85512)"
   inkscape:transform-center-x="-7.3547849"
   inkscape:transform-center-y="10.34045" /></svg>