<svg id="Capa_1" enable-background="new 0 0 512 512" height="512" viewBox="0 0 512 512" width="512" xmlns="http://www.w3.org/2000/svg"><g><path d="m430.84 28.515c-29.496-8.425-62.927-17.974-114.84-17.974-60.608 0-92.044 6.53-125.327 13.443-39.19 8.14-79.714 16.557-175.673 16.557h-15v150h25.925c18.588 0 46.204.686 71.309 6.606 51.479 12.14 105.432 10.414 156.03-4.991 3.519-1.072 6.944-1.615 10.178-1.615 20.709 0 37.558 16.849 37.558 37.558v262.442h211v-450h-15c-24.057 0-43.568-5.573-66.16-12.026zm51.16 432.026h-151v-105.041c12.544 9.438 28.129 15.041 45 15.041h45v-30h-45c-24.813 0-45-20.187-45-45 0-37.882 0-82.449 0-120 0-41.355-33.645-75-75-75v30c23.576 0 42.962 18.228 44.838 41.329-10.716-7.15-23.575-11.329-37.396-11.329-6.198 0-12.563.981-18.917 2.916-45.531 13.863-94.081 15.416-140.405 4.491-26.304-6.203-54.188-7.281-74.12-7.396v-90.084c88.6-.873 130.009-9.475 166.774-17.111 33.108-6.877 61.701-12.816 119.226-12.816 47.712 0 77.649 8.551 106.601 16.82 19.377 5.535 37.878 10.819 59.399 12.571z"/><path d="m142.967 257.508c-13.851 13.851-21.521 27.295-28.939 40.297-6.733 11.801-13.092 22.947-24.094 33.95-11.002 11.002-22.149 17.361-33.95 24.094-13.002 7.417-26.446 15.088-40.296 28.938l-10.607 10.606 106.065 106.066 10.607-10.606c13.232-13.232 20.72-25.894 28.939-40.296 6.733-11.801 13.092-22.948 24.094-33.95s22.149-17.361 33.95-24.094c13.002-7.418 26.446-15.088 40.296-28.939 29.31-29.309 29.314-76.753 0-106.065-29.307-29.31-76.751-29.316-106.065-.001zm50.903 108.947c-13.002 7.418-26.446 15.088-40.296 28.939-13.851 13.85-21.521 27.295-28.939 40.296-4.541 7.96-8.751 15.333-14.235 22.596l-62.143-62.143c7.345-5.537 14.828-9.807 22.594-14.237 13.002-7.417 26.446-15.088 40.296-28.938 13.851-13.851 21.521-27.294 28.939-40.296 4.43-7.765 8.707-15.245 14.242-22.589l62.13 62.131c-7.343 5.534-14.823 9.811-22.588 14.241zm42.751-36.507-60.029-60.029c16.382-7.842 37.11-5.317 51.228 8.802 14.119 14.119 16.641 34.849 8.801 51.227z"/></g></svg>