<svg id="OutLine" height="512" viewBox="0 0 512 512" width="512" xmlns="http://www.w3.org/2000/svg"><path d="m392 16h-272a104.12 104.12 0 0 0 -104 104v272a104.12 104.12 0 0 0 104 104h272a104.12 104.12 0 0 0 104-104v-272a104.12 104.12 0 0 0 -104-104zm88 376a88.1 88.1 0 0 1 -88 88h-272a88.1 88.1 0 0 1 -88-88v-272a88.1 88.1 0 0 1 88-88h272a88.1 88.1 0 0 1 88 88z"/><path d="m256 424h-32v-16h-16v24a8 8 0 0 0 8 8h48a8 8 0 0 0 8-8v-24h-16z"/><path d="m285 393.75-40-32a8.032 8.032 0 0 0 -10 0l-40 32a8 8 0 0 0 10 12.5l35-28.008 35 28.008a8 8 0 1 0 10-12.5z"/><path d="m404 392.43v-.43c0-17.648-12.562-32-28-32s-28 14.352-28 32v.43a24.22 24.22 0 0 0 -20 23.57c0 13.234 11.062 24 24.664 24h46.672c13.6 0 24.664-10.766 24.664-24a24.22 24.22 0 0 0 -20-23.57zm-4.664 31.57h-46.672c-4.773 0-8.664-3.586-8.664-8s3.891-8 8.664-8a9.034 9.034 0 0 1 2.531.43 8 8 0 0 0 9.828-10.157 20.325 20.325 0 0 1 -1.023-6.273c0-8.672 5.492-16 12-16s12 7.328 12 16a20.325 20.325 0 0 1 -1.023 6.273 8 8 0 0 0 9.828 10.157 9.034 9.034 0 0 1 2.531-.43c4.773 0 8.664 3.586 8.664 8s-3.891 8-8.664 8z"/><path d="m160 360a72.079 72.079 0 0 0 -72 72 8 8 0 0 0 8 8 72.079 72.079 0 0 0 72-72 8 8 0 0 0 -8-8zm-55.328 63.328a56.113 56.113 0 0 1 46.656-46.656 56.113 56.113 0 0 1 -46.656 46.656z"/><path d="m200 112h-64a8 8 0 0 0 0 16h56v56h-56a8 8 0 0 0 -8 8v72a8 8 0 0 0 8 8h64a8 8 0 0 0 0-16h-56v-56h56a8 8 0 0 0 8-8v-72a8 8 0 0 0 -8-8z"/><path d="m304 112h-64a8 8 0 0 0 0 16h56v56h-56a8 8 0 0 0 -8 8v72a8 8 0 0 0 8 8h64a8 8 0 0 0 0-16h-56v-56h56a8 8 0 0 0 8-8v-72a8 8 0 0 0 -8-8z"/><path d="m360 168a24 24 0 1 0 24 24 24.027 24.027 0 0 0 -24-24zm0 32a8 8 0 1 1 8-8 8.005 8.005 0 0 1 -8 8z"/><circle cx="360" cy="144" r="8"/><circle cx="360" cy="240" r="8"/><circle cx="360" cy="112" r="8"/><circle cx="360" cy="272" r="8"/><path d="m400 56h-288a56.068 56.068 0 0 0 -56 56v208a8 8 0 0 0 8 8h384a8 8 0 0 0 8-8v-208a56.068 56.068 0 0 0 -56-56zm40 256h-368v-200a40.047 40.047 0 0 1 40-40h288a40.047 40.047 0 0 1 40 40z"/></svg>