<svg id="Capa_1" enable-background="new 0 0 512 512" height="512" viewBox="0 0 512 512" width="512" xmlns="http://www.w3.org/2000/svg"><g><path d="m296 317.139v-247.139c0-38.598-31.402-70-70-70s-70 31.402-70 70v247.139c-25.486 20.986-40 51.634-40 84.861 0 60.654 49.346 110 110 110s110-49.346 110-110c0-33.228-14.514-63.875-40-84.861zm-70 174.861c-49.626 0-90-40.374-90-90 0-28.577 13.124-54.824 36.006-72.012 2.515-1.889 3.994-4.851 3.994-7.996v-251.992c0-27.57 22.43-50 50-50s50 22.43 50 50v251.993c0 3.145 1.479 6.107 3.994 7.996 22.882 17.187 36.006 43.434 36.006 72.011 0 49.626-40.374 90-90 90z"/><path d="m326 60h60c5.522 0 10-4.477 10-10s-4.478-10-10-10h-60c-5.522 0-10 4.477-10 10s4.478 10 10 10z"/><path d="m326 120h40c5.522 0 10-4.477 10-10s-4.478-10-10-10h-40c-5.522 0-10 4.477-10 10s4.478 10 10 10z"/><path d="m386 160h-60c-5.522 0-10 4.477-10 10s4.478 10 10 10h60c5.522 0 10-4.477 10-10s-4.478-10-10-10z"/><path d="m326 240h40c5.522 0 10-4.477 10-10s-4.478-10-10-10h-40c-5.522 0-10 4.477-10 10s4.478 10 10 10z"/><path d="m386 280h-60c-5.522 0-10 4.477-10 10s4.478 10 10 10h60c5.522 0 10-4.477 10-10s-4.478-10-10-10z"/><path d="m236 353.006v-283.006c0-5.523-4.477-10-10-10s-10 4.477-10 10v283.006c-22.795 4.646-40 24.848-40 48.994 0 27.57 22.43 50 50 50s50-22.43 50-50c0-24.146-17.205-44.348-40-48.994z"/></g></svg>