<svg xmlns="http://www.w3.org/2000/svg" xmlns:xlink="http://www.w3.org/1999/xlink" xml:space="preserve" version="1.1" style="shape-rendering:geometricPrecision;text-rendering:geometricPrecision;image-rendering:optimizeQuality;" viewBox="0 0 1000 1250" x="0px" y="0px" fill-rule="evenodd" clip-rule="evenodd"><defs><style type="text/css">
   
    .fil0 {fill:black;fill-rule:nonzero}
   
  </style></defs><g><path class="fil0" d="M250 355c8,9 10,22 35,36 36,20 87,8 109,-33 8,-13 28,-13 35,0 31,56 111,56 142,0 7,-13 27,-14 35,1 30,57 117,53 144,-4l10 -59c5,-26 44,-19 39,7l-68 400c-1,10 -10,17 -20,17l-422 0c-10,0 -19,-7 -20,-17l-68 -400c-5,-26 34,-33 39,-7l10 59zm15 70l-3 -1 44 256 388 0 44 -256c-50,28 -111,19 -150,-22 -47,51 -129,51 -176,0 -38,41 -96,49 -147,23z"/><path class="fil0" d="M601 495c19,0 35,7 47,19 12,12 20,29 20,47 0,18 -8,35 -20,47 -12,12 -28,19 -47,19 -18,0 -34,-7 -46,-19 -12,-12 -20,-29 -20,-47 0,-18 8,-35 20,-47 12,-12 28,-19 46,-19zm19 48c-5,-5 -11,-8 -19,-8 -7,0 -13,3 -18,8 -5,4 -8,11 -8,18 0,7 3,14 8,19 5,4 11,7 18,7 8,0 14,-3 19,-7 5,-5 8,-12 8,-19 0,-7 -3,-14 -8,-18z"/><path class="fil0" d="M417 495c18,0 34,7 46,19 12,12 20,29 20,47 0,18 -8,35 -20,47 -12,12 -28,19 -46,19 -19,0 -35,-7 -47,-19 -12,-12 -20,-29 -20,-47 0,-18 8,-35 20,-47 12,-12 28,-19 47,-19zm18 48c-5,-5 -11,-8 -18,-8 -8,0 -14,3 -19,8 -5,4 -8,11 -8,18 0,7 3,14 8,19 5,4 11,7 19,7 7,0 13,-3 18,-7 5,-5 8,-12 8,-19 0,-7 -3,-14 -8,-18z"/></g><text x="0" y="1015" fill="#000000" font-size="5px" font-weight="bold" font-family="'Helvetica Neue', Helvetica, Arial-Unicode, Arial, Sans-serif">Created by fibo junior</text><text x="0" y="1020" fill="#000000" font-size="5px" font-weight="bold" font-family="'Helvetica Neue', Helvetica, Arial-Unicode, Arial, Sans-serif">from the Noun Project</text></svg>