<svg id="Layer_1" height="512" viewBox="0 0 64 64" width="512" xmlns="http://www.w3.org/2000/svg" data-name="Layer 1"><path d="m61 39h-58a1 1 0 0 1 -1-1v-4a.989.989 0 0 1 .081-.394l3-7a1 1 0 0 1 .919-.606h18a1 1 0 0 1 0 2h-17.341l-2.659 6.205v2.795h56v-2.8l-2.659-6.2h-17.341a1 1 0 0 1 0-2h18a1 1 0 0 1 .919.606l3 7a.989.989 0 0 1 .081.394v4a1 1 0 0 1 -1 1z"/><path d="m32 33a5.006 5.006 0 0 1 -5-5c0-1.727 2.817-10 5-10s5 8.273 5 10a5.006 5.006 0 0 1 -5 5zm0-12.689c-1.01 1.454-3 6.018-3 7.689a3 3 0 0 0 6 0c0-1.671-1.99-6.235-3-7.689z"/><circle cx="31" cy="28" r="1"/><circle cx="32" cy="25" r="1"/><path d="m32 56a5.006 5.006 0 0 1 -5-5c0-1.727 2.817-10 5-10s5 8.273 5 10a5.006 5.006 0 0 1 -5 5zm0-12.689c-1.01 1.454-3 6.018-3 7.689a3 3 0 0 0 6 0c0-1.671-1.99-6.235-3-7.689z"/><path d="m14 49a5.006 5.006 0 0 1 -5-5 11.224 11.224 0 0 1 .759-3.328 1 1 0 1 1 1.888.656 10.229 10.229 0 0 0 -.647 2.672 3 3 0 0 0 6 0 10.229 10.229 0 0 0 -.647-2.672 1 1 0 1 1 1.888-.656 11.224 11.224 0 0 1 .759 3.328 5.006 5.006 0 0 1 -5 5z"/><path d="m52 49a5.006 5.006 0 0 1 -5-5 11.224 11.224 0 0 1 .759-3.328 1 1 0 1 1 1.888.656 10.229 10.229 0 0 0 -.647 2.672 3 3 0 0 0 6 0 10.229 10.229 0 0 0 -.647-2.672 1 1 0 1 1 1.888-.656 11.224 11.224 0 0 1 .759 3.328 5.006 5.006 0 0 1 -5 5z"/><path d="m51 23a5.006 5.006 0 0 1 -5-5c0-1.727 2.817-10 5-10s5 8.273 5 10a5.006 5.006 0 0 1 -5 5zm0-12.689c-1.01 1.454-3 6.018-3 7.689a3 3 0 0 0 6 0c0-1.671-1.99-6.235-3-7.689z"/><circle cx="52" cy="19" r="1"/><circle cx="50" cy="17" r="1"/><circle cx="51" cy="15" r="1"/><path d="m14 23a5.006 5.006 0 0 1 -5-5c0-1.727 2.817-10 5-10s5 8.273 5 10a5.006 5.006 0 0 1 -5 5zm0-12.689c-1.01 1.454-3 6.018-3 7.689a3 3 0 0 0 6 0c0-1.671-1.99-6.235-3-7.689z"/><circle cx="13" cy="19" r="1"/><circle cx="15" cy="17" r="1"/><circle cx="14" cy="14" r="1"/></svg>