<svg xmlns="http://www.w3.org/2000/svg" xmlns:xlink="http://www.w3.org/1999/xlink" version="1.1" x="0px" y="0px" viewBox="0 0 96 120" enable-background="new 0 0 96 96" xml:space="preserve"><path d="M8.911,12.1c6.074-0.167,11.205,2.633,17.01,3.869c5.414,1.152,10.689-0.946,15.864-2.239  c6.848-1.711,13.448,1.026,20.237,1.61c5.271,0.453,10.134-1.77,15.182-2.576l0.131,4.269c-0.008,0.062-0.001,0.122,0.006,0.183  l0.001,0.049h0c0.077,0.398,0.474,0.721,0.883,0.416c2.173-1.616,4.663-2.836,6.376-4.992c0.019-0.024,0.025-0.058,0.041-0.085  c0.047-0.066,0.083-0.139,0.104-0.217c0.001-0.003,0.001-0.007,0.002-0.01c0.018-0.068,0.025-0.139,0.022-0.208  c-0.001-0.015-0.004-0.03-0.006-0.044c-0.006-0.051-0.02-0.1-0.039-0.147c-0.025-0.065-0.07-0.12-0.123-0.169  c-0.001,0-0.001-0.002-0.002-0.002c-0.036-0.029-0.074-0.055-0.109-0.084c-0.903-0.739-1.86-1.408-2.809-2.086  c-1.128-0.806-2.734-1.648-3.484-2.854c-0.375-0.604-1.261-0.183-1.165,0.399h-0.003l0.132,4.305c-3.958,0.587-7.812,2-11.937,2.554  c-6.28,0.843-12.629-2.052-18.92-2.195c-6.938-0.158-12.933,3.96-20.055,2.92c-6.021-0.879-11.09-4.085-17.343-3.914  C8.107,10.872,8.104,12.122,8.911,12.1z"/><path d="M57.327,50.024c-2.905-0.62-5.759-0.44-8.665,0.042c-3.695,0.614-7.013,2.007-10.813,2.159  c-3.537,0.141-7.106-0.707-10.554-1.397c-3.859-0.772-7.657-1.469-11.465-1.232l-0.063-2.919c0.009-0.061,0.006-0.122-0.004-0.185  l-0.001-0.041l-0.003,0.001c-0.067-0.318-0.351-0.617-0.764-0.55c-1.038,0.168-2.135,1.088-2.962,1.673  c-0.945,0.668-2.284,1.595-2.645,2.765c-0.835,2.713,3.905,4.608,5.856,5.01c0.618,0.127,0.948-0.583,0.682-0.975  c0.002-0.001,0.005-0.001,0.007-0.003l-0.076-3.517c5.238-0.348,10.479,1.133,15.697,2.047c5.68,0.995,10.337,0.142,15.822-1.275  c7.556-1.952,13.805,1.612,21.179,1.85c6.066,0.195,11.008-4.672,17.104-4.801c0.805-0.017,0.807-1.267,0-1.25  c-6.15,0.13-11.045,4.178-17.104,4.801C64.912,52.602,60.848,50.775,57.327,50.024z"/><path d="M78.977,92.636c2.123-1.347,7.496-3.811,7.553-6.864c0.054-2.895-4.08-5.031-5.926-6.738  c-0.525-0.486-1.277,0.156-1.023,0.69l-0.004-0.001l-0.828,6.758c-4.771,0.96-9.588,1.997-14.319,2.057  c-3.971,0.05-6.827-2.867-10.202-4.45c-1.89-0.887-3.944-1.039-5.991-1.025c-5.215,0.035-10.204,3.065-15.208,4.229  c-6.872,1.599-13.165-3.231-20.032-1.207c-0.771,0.228-0.443,1.434,0.332,1.205c6.414-1.891,12.205,2.496,18.624,1.439  c6.045-0.996,11.463-4.384,17.678-4.426c3.879-0.026,6.842,2.601,10.02,4.375c2.011,1.123,4.343,1.115,6.568,1.087  c4.042-0.051,8.224-0.984,12.36-1.887l-0.49,4.002l0.013-0.005C77.929,92.357,78.429,92.984,78.977,92.636z"/><text x="0" y="111" fill="#000000" font-size="5px" font-weight="bold" font-family="'Helvetica Neue', Helvetica, Arial-Unicode, Arial, Sans-serif">Created by ahmad</text><text x="0" y="116" fill="#000000" font-size="5px" font-weight="bold" font-family="'Helvetica Neue', Helvetica, Arial-Unicode, Arial, Sans-serif">from the Noun Project</text></svg>