<svg height='100px' width='100px'  fill="#000000" xmlns="http://www.w3.org/2000/svg" xmlns:xlink="http://www.w3.org/1999/xlink" version="1.1" x="0px" y="0px" viewBox="0 0 100 100" enable-background="new 0 0 100 100" xml:space="preserve"><g><g><g><path fill="#000000" d="M19.644,45.687H8.337c-1.104,0-2-0.896-2-2s0.896-2,2-2h11.307c3.213,0,5.4-1.224,7.715-2.519     c2.454-1.373,4.992-2.792,8.641-2.792c3.569,0,6.365,1.228,9.068,2.416c2.401,1.055,4.67,2.051,7.324,2.051     c2.162,0,4.346-1.271,6.873-2.742c3.098-1.803,6.608-3.847,10.95-3.847h5.45c1.104,0,2,0.896,2,2s-0.896,2-2,2h-5.45     c-3.262,0-6.147,1.68-8.938,3.304c-2.774,1.615-5.645,3.285-8.886,3.285c-3.494,0-6.259-1.214-8.933-2.389     c-2.433-1.069-4.731-2.078-7.46-2.078c-2.606,0-4.498,1.058-6.688,2.283C26.775,44.079,23.9,45.687,19.644,45.687z"></path></g><g><g><polygon fill="#000000" points="67,50 64.087,47.254 74.141,36.64 64,28.254 66.532,25.153 80,36.258     "></polygon></g></g></g><g><g><path fill="#000000" d="M28.661,88c-3.482,0-6.037-0.935-8.508-1.839c-2.465-0.902-4.794-1.754-8.173-1.754H5     c-1.104,0-2-0.896-2-2s0.896-2,2-2h6.98c4.088,0,6.989,1.062,9.548,1.998C23.867,83.261,25.888,84,28.661,84     c2.645,0,5.146-1.35,7.792-2.778C39.388,79.638,42.421,78,46,78c4.538,0,6.796,1.07,8.789,2.016     c1.86,0.882,3.468,1.644,7.161,1.672c3.263,0.024,5.889,0.027,7.859,0.026c0.001,0,0.002,0,0.003,0c1.104,0,1.998,0.894,2,1.997     c0.002,1.104-0.893,2.001-1.997,2.003c-1.975,0.006-4.615-0.002-7.895-0.026c-4.578-0.034-6.846-1.109-8.846-2.058     C51.23,82.755,49.638,82,46,82c-2.568,0-5.035,1.332-7.646,2.741C35.386,86.344,32.317,88,28.661,88z"></path></g><g><g><polygon fill="#000000" points="61,96 58.303,93.042 68.271,83.629 59,75 61.76,72.1 74.146,83.691     "></polygon></g></g></g><g><g><path fill="#000000" d="M49.515,21.901c-3.482,0-6.037-0.935-8.508-1.839c-2.465-0.902-4.794-1.754-8.173-1.754h-6.98     c-1.104,0-2-0.896-2-2s0.896-2,2-2h6.98c4.088,0,6.989,1.062,9.548,1.998c2.339,0.856,4.36,1.595,7.133,1.595     c2.645,0,5.145-1.35,7.792-2.778c2.934-1.584,5.968-3.222,9.546-3.222c4.538,0,6.797,1.071,8.789,2.015     c1.861,0.883,3.469,1.645,7.162,1.673c3.263,0.023,5.892,0.029,7.858,0.026c0.001,0,0.002,0,0.003,0c1.104,0,1.998,0.894,2,1.997     c0.002,1.104-0.893,2.001-1.997,2.003c-1.979,0.001-4.615-0.003-7.895-0.026c-4.578-0.035-6.846-1.11-8.846-2.058     c-1.845-0.875-3.438-1.63-7.075-1.63c-2.567,0-5.034,1.332-7.646,2.741C56.239,20.244,53.171,21.901,49.515,21.901z"></path></g><g><g><polygon fill="#000000" points="81.854,29.9 79.157,26.942 89.127,17.529 79.854,8.9 82.613,6 95,17.592     "></polygon></g></g></g><g><g><path fill="#000000" d="M66.654,66.859c-3.623,0-6.475-1.696-8.991-3.193c-2.305-1.372-4.481-2.667-7.08-2.667     c-2.666,0-4.684,0.984-7.021,2.125c-2.638,1.287-5.628,2.746-9.825,2.746h-12.88c-1.104,0-2-0.896-2-2s0.896-2,2-2h12.88     c3.273,0,5.604-1.137,8.07-2.341c2.549-1.244,5.186-2.53,8.775-2.53c3.699,0,6.582,1.716,9.126,3.229     c2.274,1.353,4.422,2.631,6.945,2.631c2.153,0,3.784-0.676,5.85-1.53c2.731-1.132,6.131-2.54,11.755-2.68     c1.784-0.046,3.943-0.063,6.414-0.05c1.104,0.006,1.996,0.905,1.99,2.01c-0.006,1.102-0.9,1.99-2,1.99c-0.003,0-0.007,0-0.01,0     c-2.434-0.015-4.548,0.004-6.294,0.048c-4.882,0.122-7.648,1.269-10.325,2.377C71.756,65.968,69.604,66.859,66.654,66.859z"></path></g><g><g><polygon fill="#000000" points="81,73.999 78.197,71.141 89.129,60.805 78,50.999 80.652,48 95,60.652     "></polygon></g></g></g></g></svg>