<svg height="512" viewBox="0 0 512 512" width="512" xmlns="http://www.w3.org/2000/svg"><g id="outline"><path d="m350.625 39.635c-25.401-15.241-59.006-23.635-94.625-23.635s-69.224 8.394-94.625 23.635c-26.681 16.008-41.375 37.73-41.375 61.165v310.4c0 23.437 14.694 45.159 41.375 61.167 25.401 15.24 59.006 23.633 94.625 23.633s69.224-8.393 94.625-23.633c26.681-16.008 41.375-37.73 41.375-61.167v-310.4c0-23.435-14.694-45.157-41.375-61.165zm-8.232 419.012c-22.95 13.77-53.632 21.353-86.393 21.353s-63.443-7.583-86.393-21.353c-21.545-12.926-33.462-29.656-33.6-47.139a103.078 103.078 0 0 0 25.368 20.857c25.401 15.241 59.006 23.635 94.625 23.635s69.224-8.394 94.625-23.635a103.078 103.078 0 0 0 25.368-20.857c-.138 17.483-12.055 34.213-33.6 47.139zm33.607-87.447c0 17.593-11.935 34.443-33.606 47.446-22.951 13.77-53.633 21.354-86.394 21.354s-63.443-7.584-86.394-21.354c-21.671-13.003-33.606-29.853-33.606-47.446v-159.7a103.062 103.062 0 0 0 25.375 20.865c25.401 15.241 59.006 23.635 94.625 23.635s69.224-8.394 94.625-23.635a103.062 103.062 0 0 0 25.375-20.865zm0-200c0 17.593-11.935 34.443-33.606 47.446-22.951 13.77-53.633 21.354-86.394 21.354s-63.443-7.584-86.394-21.354c-21.671-13.003-33.606-29.853-33.606-47.446v-30.1a103.107 103.107 0 0 0 25.375 20.865c25.4 15.24 59.006 23.634 94.625 23.634s69.225-8.394 94.625-23.634a103.107 103.107 0 0 0 25.375-20.865zm-33.606-22.954c-22.951 13.77-53.633 21.354-86.394 21.354s-63.443-7.584-86.394-21.354c-21.671-13.003-33.606-29.852-33.606-47.446s11.935-34.443 33.606-47.446c22.951-13.77 53.633-21.354 86.394-21.354s63.443 7.584 86.394 21.354c21.671 13.003 33.606 29.853 33.606 47.446s-11.935 34.443-33.606 47.446z"/><path d="m256 64.8c-36.486 0-64 15.476-64 36s27.514 36 64 36 64-15.477 64-36-27.514-36-64-36zm0 56c-29.739 0-48-11.649-48-20s18.261-20 48-20 48 11.648 48 20-18.261 20-48 20z"/><path d="m248 280h16v16h-16z"/><path d="m248 312h16v16h-16z"/><path d="m248 344h16v16h-16z"/><path d="m248 376h16v16h-16z"/><path d="m248 408h16v16h-16z"/><path d="m280 280h16v16h-16z"/><path d="m280 312h16v16h-16z"/><path d="m280 344h16v16h-16z"/><path d="m280 376h16v16h-16z"/><path d="m280 408h16v16h-16z"/><path d="m312 280h16v16h-16z"/><path d="m312 312h16v16h-16z"/><path d="m312 344h16v16h-16z"/><path d="m312 376h16v16h-16z"/><path d="m344 280h16v16h-16z"/><path d="m344 248h16v16h-16z"/><path d="m344 312h16v16h-16z"/><path d="m344 344h16v16h-16z"/><path d="m216 280h16v16h-16z"/><path d="m216 312h16v16h-16z"/><path d="m216 344h16v16h-16z"/><path d="m216 376h16v16h-16z"/><path d="m216 408h16v16h-16z"/><path d="m184 280h16v16h-16z"/><path d="m184 312h16v16h-16z"/><path d="m184 344h16v16h-16z"/><path d="m184 376h16v16h-16z"/><path d="m152 280h16v16h-16z"/><path d="m152 248h16v16h-16z"/><path d="m152 312h16v16h-16z"/><path d="m152 344h16v16h-16z"/><path d="m448 392a16.019 16.019 0 0 1 -16-16h-16a32 32 0 1 0 32-32h-40v16h40a16 16 0 0 1 0 32z"/><path d="m464 232a32.036 32.036 0 0 0 -32 32h16a16 16 0 1 1 16 16h-56v16h56a32 32 0 0 0 0-64z"/><path d="m408 312h88v16h-88z"/><path d="m64 360h40v-16h-40a32 32 0 1 0 32 32h-16a16 16 0 1 1 -16-16z"/><path d="m48 296h56v-16h-56a16 16 0 1 1 16-16h16a32 32 0 1 0 -32 32z"/><path d="m16 312h88v16h-88z"/><path d="m277.47 200.41a68.291 68.291 0 0 1 -42.94 0 8 8 0 0 0 -5.06 15.18 84.421 84.421 0 0 0 53.06 0 8 8 0 0 0 -5.06-15.18z"/></g></svg>