<svg height="512pt" viewBox="0 0 512 512" width="512pt" xmlns="http://www.w3.org/2000/svg"><path d="m512 459.648438v-407.296876c0-28.867187-23.484375-52.351562-52.351562-52.351562h-407.296876c-28.867187 0-52.351562 23.484375-52.351562 52.351562v407.296876c0 28.867187 23.484375 52.351562 52.351562 52.351562h407.296876c28.867187 0 52.351562-23.484375 52.351562-52.351562zm-497-407.296876c0-20.597656 16.753906-37.351562 37.351562-37.351562h407.296876c20.597656 0 37.351562 16.753906 37.351562 37.351562v62.347657h-482zm432 139.882813v254.765625h-67.46875c33.527344-19.394531 56.132812-55.648438 56.132812-97.089844 0-61.800781-50.277343-112.078125-112.074218-112.078125-25.605469 0-50.335938 8.824219-70.089844 24.640625v-34.683594c0-11.738281-9.550781-21.289062-21.289062-21.289062h-112.921876c-11.738281 0-21.289062 9.550781-21.289062 21.289062v49.460938c0 12.453125 3.035156 24.863281 8.78125 35.882812 1.914062 3.671876 6.441406 5.097657 10.117188 3.183594 3.671874-1.914062 5.097656-6.445312 3.183593-10.117187-4.699219-9.015625-7.082031-18.753907-7.082031-28.949219v-49.460938c0-3.46875 2.820312-6.289062 6.289062-6.289062h112.921876c3.46875 0 6.289062 2.820312 6.289062 6.289062v49.460938c0 35.238281-31.222656 64.261719-66.136719 62.652344-.03125-.003906-.0625-.003906-.09375-.007813-12.828125-.800781-25.078125-5.3125-35.207031-13.257812-3.257812-2.558594-7.972656-1.988281-10.53125 1.269531-2.554688 3.257812-1.984375 7.972656 1.273438 10.53125 7.648437 6 16.148437 10.429688 25.195312 13.191406v57.21875c-3.207031 1.464844-7.402344 3.800782-11.609375 7.375-6.65625 5.660156-14.339844 15.390625-16.042969 30.777344h-60.347656v-254.765625s20.683594-10.4375 20.6875-10.4375c13.34375-6.734375 29.53125-6.726563 42.871094 0 17.425781 8.785156 38.777344 8.890625 56.382812 0 13.347656-6.746094 29.519532-6.734375 42.867188 0 17.574218 8.863281 38.808594 8.875 56.378906 0 13.179688-6.65625 29.515625-6.75 42.871094 0 17.421875 8.796875 38.78125 8.890625 56.382812 0 13.355469-6.746094 29.519532-6.738281 42.871094 0zm-271.25 162.765625c2.617188 0 5.199219-.132812 7.75-.386719v51.886719h-15.5v-51.890625c.015625 0 .03125 0 .050781.003906 1.152344.101563 6.285157.386719 7.699219.386719zm-14.101562 66.5h28.199218c3.722656 1.292969 18.3125 7.460938 21.175782 25.5h-70.546876c2.863282-18.039062 17.453126-24.207031 21.171876-25.5zm64.5 25.5c-2.417969-21.425781-16.726563-33.308594-27.648438-38.222656v-57.179688c4.558594-1.398437 8.933594-3.214844 13.09375-5.386718-.039062 1.234374-.082031 2.464843-.082031 3.699218 0 41.441406 22.605469 77.695313 56.132812 97.089844zm14.492187-126.96875c7.179687-10.933594 11.59375-23.710938 12.601563-36.757812.007812-.097657.023437-.191407.03125-.285157 18.28125-19.195312 43.761718-30.15625 70.316406-30.15625 53.527344 0 97.078125 43.550781 97.078125 97.078125 0 53.53125-43.550781 97.078125-97.078125 97.078125-53.53125 0-97.078125-43.546875-97.078125-97.078125 0-4.9375.375-9.890625 1.117187-14.757812 4.960938-4.449219 9.351563-9.550782 13.011719-15.121094zm206.359375-144.597656-13.933594-7.03125c-17.539062-8.84375-38.847656-8.855469-56.386718.003906-13.351563 6.742188-29.503907 6.746094-42.859376 0-17.558593-8.867188-38.828124-8.859375-56.390624 0-13.167969 6.640625-29.519532 6.738281-42.863282-.003906-17.523437-8.851563-38.855468-8.851563-56.386718.003906-13.363282 6.75-29.503907 6.746094-42.863282-.003906-17.390625-8.78125-38.804687-8.863282-56.386718.003906l-13.929688 7.027344v-45.734375h382zm-432 284.214844v-329.949219h35v324.800781c0 4.140625 3.359375 7.5 7.5 7.5h397c4.140625 0 7.5-3.359375 7.5-7.5v-324.800781h35v329.949219c0 20.597656-16.753906 37.351562-37.351562 37.351562h-407.296876c-20.597656 0-37.351562-16.753906-37.351562-37.351562zm0 0"/><path d="m278.703125 96.714844h164.09375c10.589844 0 19.203125-8.617188 19.203125-19.207032v-25.316406c0-10.589844-8.613281-19.203125-19.203125-19.203125h-164.09375c-10.589844 0-19.203125 8.613281-19.203125 19.203125v25.316406c0 10.589844 8.613281 19.207032 19.203125 19.207032zm-4.203125-44.523438c0-2.320312 1.886719-4.203125 4.203125-4.203125h164.09375c2.316406 0 4.203125 1.882813 4.203125 4.203125v25.316406c0 2.320313-1.886719 4.207032-4.203125 4.207032h-164.09375c-2.316406 0-4.203125-1.886719-4.203125-4.207032zm0 0"/><path d="m105.300781 94.714844c16.464844 0 29.863281-13.398438 29.863281-29.863282 0-16.46875-13.398437-29.863281-29.863281-29.863281-16.46875 0-29.863281 13.394531-29.863281 29.863281 0 16.464844 13.398438 29.863282 29.863281 29.863282zm0-44.726563c8.195313 0 14.863281 6.664063 14.863281 14.863281 0 8.195313-6.667968 14.863282-14.863281 14.863282-8.195312 0-14.863281-6.667969-14.863281-14.863282 0-8.199218 6.667969-14.863281 14.863281-14.863281zm0 0"/><path d="m182.167969 94.714844c16.464843 0 29.863281-13.398438 29.863281-29.863282 0-16.46875-13.398438-29.863281-29.863281-29.863281-16.46875 0-29.863281 13.394531-29.863281 29.863281 0 16.464844 13.394531 29.863282 29.863281 29.863282zm0-44.726563c8.195312 0 14.863281 6.664063 14.863281 14.863281 0 8.195313-6.667969 14.863282-14.863281 14.863282-8.195313 0-14.863281-6.667969-14.863281-14.863282 0-8.199218 6.667968-14.863281 14.863281-14.863281zm0 0"/><path d="m323.589844 426.988281c42.5 0 77.078125-34.578125 77.078125-77.078125 0-16.097656-4.953125-31.546875-14.324219-44.675781-2.40625-3.371094-7.085938-4.152344-10.460938-1.746094-3.371093 2.40625-4.152343 7.089844-1.746093 10.460938 7.542969 10.570312 11.53125 23.003906 11.53125 35.960937 0 34.230469-27.847657 62.078125-62.078125 62.078125-34.230469 0-62.078125-27.847656-62.078125-62.078125 0-34.226562 27.847656-62.074218 62.078125-62.074218 10.949218 0 21.738281 2.917968 31.199218 8.445312 3.574219 2.089844 8.167969.882812 10.257813-2.691406 2.089844-3.578125.886719-8.167969-2.691406-10.261719-11.753907-6.863281-25.15625-10.492187-38.765625-10.492187-42.5 0-77.078125 34.574218-77.078125 77.074218s34.578125 77.078125 77.078125 77.078125zm0 0"/></svg>