<?xml version="1.0" encoding="iso-8859-1"?>
<!-- Generator: Adobe Illustrator 19.0.0, SVG Export Plug-In . SVG Version: 6.00 Build 0)  -->
<svg version="1.1" id="Layer_1" xmlns="http://www.w3.org/2000/svg" xmlns:xlink="http://www.w3.org/1999/xlink" x="0px" y="0px"
	 viewBox="0 0 512 512" style="enable-background:new 0 0 512 512;" xml:space="preserve">
<g>
	<g>
		<g>
			<path d="M234.667,341.333c0-23.531-19.146-42.667-42.667-42.667s-42.667,19.135-42.667,42.667
				c0,13.792,6.542,26.365,17.458,34.313l-6.729,60.51c-0.333,3.01,0.625,6.031,2.646,8.292c2.042,2.26,4.917,3.552,7.958,3.552
				h42.667c3.042,0,5.917-1.292,7.958-3.552c2.021-2.26,2.979-5.281,2.646-8.292l-6.688-60.219
				C226.646,369.917,234.667,360.344,234.667,341.333z M201.208,360.458c-4.063,1.979-6.458,6.292-5.958,10.781l6.167,55.427
				h-18.833l6.167-55.427c0.5-4.49-1.896-8.802-5.958-10.781c-7.479-3.625-12.125-10.948-12.125-19.125
				c0-11.76,9.563-21.333,21.333-21.333s21.333,9.573,21.333,21.333C213.333,353.281,209.458,356.469,201.208,360.458z"/>
			<path d="M437.333,128H320V42.667C320,19.135,300.854,0,277.333,0H106.667C83.146,0,64,19.135,64,42.667v426.667
				C64,492.865,83.146,512,106.667,512h170.667C300.854,512,320,492.865,320,469.333v-256h117.333
				c5.896,0,10.667-4.771,10.667-10.667v-64C448,132.771,443.229,128,437.333,128z M298.667,469.333
				c0,11.76-9.563,21.333-21.333,21.333H106.667c-11.771,0-21.333-9.573-21.333-21.333V42.667c0-11.76,9.563-21.333,21.333-21.333
				h170.667c11.771,0,21.333,9.573,21.333,21.333V128h-59.229c-12.146-13.625-29.167-21.333-47.438-21.333
				c-35.292,0-64,28.708-64,64c0,35.292,28.708,64,64,64c18.271,0,35.292-7.708,47.438-21.333h59.229V469.333z M426.667,192h-192.25
				c-3.354,0-6.5,1.573-8.521,4.24c-8.188,10.865-20.542,17.094-33.896,17.094c-23.521,0-42.667-19.135-42.667-42.667
				S168.479,128,192,128c13.354,0,25.708,6.229,33.896,17.094c2.021,2.667,5.167,4.24,8.521,4.24h192.25V192z"/>
		</g>
	</g>
</g>
<g>
</g>
<g>
</g>
<g>
</g>
<g>
</g>
<g>
</g>
<g>
</g>
<g>
</g>
<g>
</g>
<g>
</g>
<g>
</g>
<g>
</g>
<g>
</g>
<g>
</g>
<g>
</g>
<g>
</g>
</svg>
