<?xml version="1.0" encoding="iso-8859-1"?>
<!-- Generator: Adobe Illustrator 19.0.0, SVG Export Plug-In . SVG Version: 6.00 Build 0)  -->
<svg version="1.1" id="Layer_1" xmlns="http://www.w3.org/2000/svg" xmlns:xlink="http://www.w3.org/1999/xlink" x="0px" y="0px"
	 viewBox="0 0 511.999 511.999" style="enable-background:new 0 0 511.999 511.999;" xml:space="preserve">
<path d="M335.21,34.31H65.486v389.729H34.713v16.4h37.578l204.459,71.561v-71.561h113.591v-16.4h-55.131V34.31H335.21z
	 M260.351,488.883L81.886,426.42V55.474l17.701,8.395v270.937h16.4V71.657l144.363,68.595V488.883z M276.751,424.039V129.888
	l-165.45-78.615l-1.188-0.564H318.81v339.228h-25.901v16.4h25.901v17.7h-42.059V424.039z"/>
<rect x="214.963" y="297.379" width="29.23" height="16.4"/>
<rect x="99.582" y="349.422" width="16.4" height="19.487"/>
<rect x="288.031" y="63.534" width="19.487" height="16.4"/>
<rect x="258.806" y="63.534" width="19.487" height="16.4"/>
<rect x="288.031" y="92.77" width="19.487" height="16.4"/>
<rect x="99.582" y="383.524" width="16.4" height="19.486"/>
<path d="M455.281,21.414C426.546-7.32,391.471-1.208,376.939,6.038l7.319,14.677c0.314-0.157,31.767-15.367,59.427,12.296
	c27.568,27.568,13.825,59.545,13.242,60.859l14.927,6.793C472.653,98.904,491.042,57.175,455.281,21.414z"/>
<path d="M383.849,40.533l7.334,14.668c0.129-0.065,13.166-6.38,24.928,5.381c11.702,11.703,6.048,25.291,5.833,25.794l14.935,6.774
	c0.446-0.983,10.691-24.302-9.172-44.165C407.682,28.964,384.812,40.05,383.849,40.533z"/>
<path d="M380.598,68.386c-7.393,0-14.345,2.917-19.499,8.138c-5.295,5.228-8.212,12.18-8.212,19.572
	c0,7.394,2.917,14.345,8.138,19.5c5.228,5.295,12.18,8.212,19.573,8.212c7.377,0,14.312-2.903,19.537-8.175
	c5.272-5.224,8.175-12.16,8.175-19.537c0-7.393-2.916-14.344-8.138-19.499C394.943,71.303,387.991,68.386,380.598,68.386z
	 M388.575,104l-0.073,0.073c-2.123,2.151-4.93,3.335-7.903,3.335c-2.973,0-5.779-1.184-7.976-3.408
	c-2.15-2.122-3.335-4.93-3.335-7.904c0-2.973,1.184-5.779,3.408-7.976c2.123-2.151,4.93-3.335,7.903-3.335
	c2.974,0,5.78,1.184,7.977,3.408c2.151,2.122,3.334,4.93,3.334,7.903C391.909,99.07,390.725,101.876,388.575,104z"/>
<g>
</g>
<g>
</g>
<g>
</g>
<g>
</g>
<g>
</g>
<g>
</g>
<g>
</g>
<g>
</g>
<g>
</g>
<g>
</g>
<g>
</g>
<g>
</g>
<g>
</g>
<g>
</g>
<g>
</g>
</svg>
