<?xml version="1.0" encoding="UTF-8" standalone="no"?><!DOCTYPE svg PUBLIC "-//W3C//DTD SVG 1.1//EN" "http://www.w3.org/Graphics/SVG/1.1/DTD/svg11.dtd"><svg width="100%" height="100%" viewBox="0 0 512 512" version="1.1" xmlns="http://www.w3.org/2000/svg" xmlns:xlink="http://www.w3.org/1999/xlink" xml:space="preserve" xmlns:serif="http://www.serif.com/" style="fill-rule:evenodd;clip-rule:evenodd;stroke-linejoin:round;stroke-miterlimit:2;"><g id="Layer_31"><path d="M104,488c25.53,0.001 50.029,-10.21 68,-28.344c52.651,27.103 115.293,27.103 167.944,0c18.002,18.12 42.516,28.32 68.058,28.32c52.629,0 95.936,-43.307 95.936,-95.936c-0,-40.617 -25.796,-77.031 -64.114,-90.504c0.056,-1.848 0.176,-3.68 0.176,-5.536c-0.064,-64.694 -34.212,-124.782 -89.76,-157.944c1.171,-6.029 1.76,-12.157 1.76,-18.298c0,-52.664 -43.336,-96 -96,-96c-52.664,-0 -96,43.336 -96,96c0,6.141 0.589,12.269 1.76,18.298c-55.548,33.162 -89.696,93.25 -89.76,157.944c0,1.856 0.12,3.688 0.176,5.536c-38.353,13.453 -64.181,49.884 -64.181,90.528c0,52.629 43.307,95.936 95.936,95.936c0.023,0 0.046,0 0.069,0Zm-75.064,-68.6l34.6,-32.064l71.76,78.28c-9.893,4.212 -20.536,6.383 -31.288,6.383c-33.517,0 -63.628,-21.097 -75.072,-52.599Zm120.72,38.2l-24.2,-26.4l34.544,-28.8l19.376,16.144c-5.589,15.798 -15.984,29.458 -29.72,39.056Zm338.344,-65.6c0,43.887 -36.113,80 -80,80c-43.887,0 -80,-36.113 -80,-80c0,-43.887 36.113,-80 80,-80c43.868,0.048 79.952,36.132 80,80Zm-232,-352c43.887,-0 80,36.113 80,80c0,43.887 -36.113,80 -80,80c-43.887,0 -80,-36.113 -80,-80c0.048,-43.868 36.132,-79.952 80,-80Zm-168,256c0.045,-57.576 29.652,-111.268 78.32,-142.032c14.039,37.242 49.88,62.035 89.68,62.035c39.8,-0 75.641,-24.793 89.68,-62.035c48.668,30.764 78.275,84.456 78.32,142.032c0,0.48 -0.04,0.96 -0.048,1.44c-5.322,-0.908 -10.711,-1.364 -16.11,-1.364c-52.563,0 -95.816,43.253 -95.816,95.816c0,19.74 6.101,39.006 17.462,55.148c-46.361,22.552 -100.615,22.552 -146.976,-0c11.502,-16.182 17.685,-35.552 17.685,-55.405c-0,-52.462 -43.17,-95.632 -95.632,-95.632c-5.537,-0 -11.063,0.481 -16.517,1.437c-0.008,-0.48 -0.048,-0.96 -0.048,-1.44Zm16,16c0.104,-0 0.208,-0.001 0.312,-0.001c43.716,0 79.688,35.973 79.688,79.688c0,3.153 -0.187,6.303 -0.56,9.433l-18.312,-15.264c-2.957,-2.47 -7.299,-2.47 -10.256,-0l-40.24,33.536l-44.736,-48.8c-1.446,-1.575 -3.464,-2.506 -5.6,-2.584c-2.132,-0.111 -4.219,0.659 -5.768,2.128l-33.896,31.464c-0.406,-3.184 -0.617,-6.39 -0.632,-9.6c0.048,-43.868 36.132,-79.952 80,-80Z" style="fill-rule:nonzero;"/><path d="M255.944,328c-13.166,0 -24,10.834 -24,24c-0,13.166 10.834,24 24,24c13.166,0 24,-10.834 24,-24c-0,-13.166 -10.834,-24 -24,-24Zm-0,32c-4.389,0 -8,-3.611 -8,-8c-0,-4.389 3.611,-8 8,-8c4.389,0 8,3.611 8,8c-0,4.389 -3.611,8 -8,8Z" style="fill-rule:nonzero;"/><path d="M216.344,312.4l11.312,11.312c15.516,-15.516 41.052,-15.516 56.568,-0l11.312,-11.312c-10.498,-10.499 -24.753,-16.404 -39.6,-16.404c-14.847,-0 -29.102,5.905 -39.6,16.404l0.008,-0Z" style="fill-rule:nonzero;"/><path d="M193.72,289.776l11.312,11.312c13.497,-13.498 31.824,-21.089 50.912,-21.089c19.088,0 37.415,7.591 50.912,21.089l11.312,-11.312c-34.136,-34.134 -90.312,-34.134 -124.448,0Z" style="fill-rule:nonzero;"/><path d="M255.944,248c27.589,-0.077 54.09,10.901 73.544,30.464l11.312,-11.312c-46.549,-46.548 -123.155,-46.548 -169.704,0l11.304,11.312c19.453,-19.564 45.955,-30.542 73.544,-30.464Z" style="fill-rule:nonzero;"/><path d="M372.056,337.04c-2.503,1.419 -4.056,4.083 -4.056,6.96l0,96c0.001,4.388 3.612,7.998 8,7.998c1.451,0 2.876,-0.395 4.12,-1.142l80,-48c2.403,-1.445 3.877,-4.052 3.877,-6.856c0,-2.804 -1.474,-5.411 -3.877,-6.856l-80,-48c-2.469,-1.484 -5.557,-1.524 -8.064,-0.104Zm11.944,21.088l56.456,33.872l-56.456,33.872l0,-67.744Z" style="fill-rule:nonzero;"/><path d="M240,144l0,-37.752l48,12l0,19.2c-2.563,-0.939 -5.27,-1.429 -8,-1.448c-13.166,0 -24,10.834 -24,24c0,13.166 10.834,24 24,24c13.166,0 24,-10.834 24,-24l0,-80c-0.001,-3.66 -2.513,-6.874 -6.064,-7.76l-64,-16c-0.633,-0.158 -1.283,-0.238 -1.936,-0.238c-4.388,0 -7.999,3.61 -8,7.998l0,57.472c-2.562,-0.947 -5.269,-1.445 -8,-1.472c-13.166,0 -24,10.834 -24,24c0,13.166 10.834,24 24,24c13.166,0 24,-10.834 24,-24Zm40,24c-4.389,0 -8,-3.611 -8,-8c0,-4.389 3.611,-8 8,-8c4.389,0 8,3.611 8,8c0,4.389 -3.611,8 -8,8Zm8,-81.752l0,15.504l-48,-12l0,-15.504l48,12Zm-80,57.752c0,-4.389 3.611,-8 8,-8c4.389,0 8,3.611 8,8c0,4.389 -3.611,8 -8,8c-4.389,0 -8,-3.611 -8,-8Z" style="fill-rule:nonzero;"/><path d="M120,376c13.166,0 24,-10.834 24,-24c0,-13.166 -10.834,-24 -24,-24c-13.166,0 -24,10.834 -24,24c0,13.166 10.834,24 24,24Zm0,-32c4.389,0 8,3.611 8,8c0,4.389 -3.611,8 -8,8c-4.389,0 -8,-3.611 -8,-8c0,-4.389 3.611,-8 8,-8Z" style="fill-rule:nonzero;"/></g></svg>