<?xml version="1.0" standalone="no"?>
<!DOCTYPE svg PUBLIC "-//W3C//DTD SVG 20010904//EN"
 "http://www.w3.org/TR/2001/REC-SVG-20010904/DTD/svg10.dtd">
<svg version="1.0" xmlns="http://www.w3.org/2000/svg"
 width="652.000000pt" height="612.000000pt" viewBox="0 0 652.000000 612.000000"
 preserveAspectRatio="xMidYMid meet">
<metadata>
Created by potrace 1.13, written by Peter Selinger 2001-2015
</metadata>
<g transform="translate(0.000000,612.000000) scale(0.100000,-0.100000)"
fill="#000000" stroke="none">
<path d="M4693 5940 c-164 -33 -319 -175 -368 -337 -94 -311 127 -622 442
-623 209 0 369 108 449 305 38 94 40 236 6 334 -81 229 -305 365 -529 321z"/>
<path d="M5050 5000 c-107 -15 -214 -71 -289 -152 -22 -24 -97 -133 -165 -243
-69 -110 -145 -231 -169 -270 -24 -38 -99 -158 -166 -267 l-122 -196 -107 -60
c-59 -33 -222 -121 -362 -197 -140 -76 -270 -151 -288 -169 -40 -38 -67 -120
-57 -174 11 -60 53 -126 97 -155 54 -35 100 -43 160 -28 39 11 521 271 780
422 81 47 73 36 263 342 27 42 54 77 61 77 7 0 14 -23 18 -62 4 -35 11 -92 16
-128 5 -36 14 -119 20 -185 6 -66 20 -205 31 -308 11 -103 18 -191 15 -196 -5
-7 -31 -97 -166 -561 -26 -91 -89 -304 -140 -475 -50 -170 -125 -425 -165
-565 -84 -289 -143 -490 -245 -835 -64 -215 -71 -247 -67 -305 13 -200 232
-349 418 -285 140 48 179 102 249 345 23 80 57 199 77 265 19 66 54 188 78
270 24 83 55 191 70 240 14 50 50 173 80 275 29 102 70 241 90 310 21 69 45
154 55 190 49 182 63 221 76 208 7 -7 19 -79 29 -163 41 -379 47 -419 77 -499
28 -75 343 -788 502 -1135 97 -215 118 -244 204 -284 262 -123 515 87 451 373
-5 25 -44 122 -86 215 -90 202 -263 587 -363 810 -70 155 -72 164 -86 285 -7
69 -18 157 -23 195 -6 39 -15 115 -21 170 -6 55 -22 190 -35 300 -13 110 -38
317 -55 460 -30 250 -73 606 -106 880 -8 72 -19 156 -23 188 -5 35 -4 60 2 64
12 8 317 -296 322 -322 3 -18 15 -130 71 -675 17 -172 26 -210 65 -271 43 -67
94 -92 179 -87 84 4 138 38 172 107 30 61 29 108 -11 441 -18 146 -43 362 -57
479 -19 171 -29 225 -48 265 -26 54 -76 108 -629 664 -165 166 -325 319 -355
339 -100 66 -203 90 -322 73z"/>
<path d="M367 3882 l-367 -367 0 -430 0 -430 370 370 370 370 810 -810 810
-810 0 -735 c0 -559 -3 -739 -12 -748 -17 -17 -639 -17 -656 0 -9 9 -12 165
-12 640 l0 628 -300 0 -300 0 0 -628 c0 -475 -3 -631 -12 -640 -9 -9 -143 -12
-540 -12 l-528 0 0 -140 0 -140 1320 0 1320 0 0 723 c0 539 3 726 12 735 9 9
30 -6 88 -62 58 -55 90 -78 131 -92 107 -36 229 -15 307 51 45 39 122 183 122
229 0 15 -16 62 -36 104 -35 75 -52 93 -560 602 l-524 525 0 563 0 562 -300 0
-300 0 0 -262 0 -263 -418 418 c-229 229 -419 417 -422 417 -3 0 -170 -165
-373 -368z"/>
<path d="M440 2260 l0 -300 300 0 300 0 0 300 0 300 -300 0 -300 0 0 -300z"/>
</g>
</svg>
