<?xml version="1.0" encoding="UTF-8" standalone="no"?>
<!-- Created with Inkscape (http://www.inkscape.org/) -->

<svg
   version="1.1"
   id="svg1356"
   xml:space="preserve"
   width="682.66669"
   height="682.66669"
   viewBox="0 0 682.66669 682.66669"
   xmlns="http://www.w3.org/2000/svg"
   xmlns:svg="http://www.w3.org/2000/svg"><defs
     id="defs1360"><clipPath
       clipPathUnits="userSpaceOnUse"
       id="clipPath1370"><path
         d="M 0,512 H 512 V 0 H 0 Z"
         id="path1368" /></clipPath></defs><g
     id="g1362"
     transform="matrix(1.3333333,0,0,-1.3333333,0,682.66667)"><g
       id="g1364"><g
         id="g1366"
         clip-path="url(#clipPath1370)"><g
           id="g1372"
           transform="translate(165,136)"><path
             d="m 0,0 h 66.937 c 57.974,0 106.068,-41.896 115.691,-97.096"
             style="fill:none;stroke:#000000;stroke-width:30;stroke-linecap:butt;stroke-linejoin:miter;stroke-miterlimit:10;stroke-dasharray:none;stroke-opacity:1"
             id="path1374" /></g><path
           d="M 15,106 H 165 V 406 H 15 Z"
           style="fill:none;stroke:#000000;stroke-width:30;stroke-linecap:butt;stroke-linejoin:miter;stroke-miterlimit:10;stroke-dasharray:none;stroke-opacity:1"
           id="path1376" /><g
           id="g1378"
           transform="translate(347.6276,473.096)"><path
             d="m 0,0 c -9.623,-55.2 -57.717,-97.096 -115.69,-97.096 h -66.938"
             style="fill:none;stroke:#000000;stroke-width:30;stroke-linecap:butt;stroke-linejoin:miter;stroke-miterlimit:10;stroke-dasharray:none;stroke-opacity:1"
             id="path1380" /></g><g
           id="g1382"
           transform="translate(407,338.5)"><path
             d="M 0,0 90,-30 V -135 L 0,-165"
             style="fill:none;stroke:#000000;stroke-width:30;stroke-linecap:butt;stroke-linejoin:miter;stroke-miterlimit:10;stroke-dasharray:none;stroke-opacity:1"
             id="path1384" /></g><g
           id="g1386"
           transform="translate(377,497)"><path
             d="m 0,0 c -16.568,0 -30,-13.431 -30,-30 v -422 c 0,-16.569 13.432,-30 30,-30 16.569,0 30,13.431 30,30 V -30 C 30,-13.431 16.569,0 0,0 Z"
             style="fill:none;stroke:#000000;stroke-width:30;stroke-linecap:butt;stroke-linejoin:miter;stroke-miterlimit:10;stroke-dasharray:none;stroke-opacity:1"
             id="path1388" /></g><g
           id="g1390"
           transform="translate(165,286)"><path
             d="M 0,0 H -150"
             style="fill:none;stroke:#000000;stroke-width:30;stroke-linecap:butt;stroke-linejoin:miter;stroke-miterlimit:10;stroke-dasharray:none;stroke-opacity:1"
             id="path1392" /></g><g
           id="g1394"
           transform="translate(165,346)"><path
             d="M 0,0 H -150"
             style="fill:none;stroke:#000000;stroke-width:30;stroke-linecap:butt;stroke-linejoin:miter;stroke-miterlimit:10;stroke-dasharray:none;stroke-opacity:1"
             id="path1396" /></g><g
           id="g1398"
           transform="translate(165,226)"><path
             d="M 0,0 H -150"
             style="fill:none;stroke:#000000;stroke-width:30;stroke-linecap:butt;stroke-linejoin:miter;stroke-miterlimit:10;stroke-dasharray:none;stroke-opacity:1"
             id="path1400" /></g><g
           id="g1402"
           transform="translate(165,166)"><path
             d="M 0,0 H -150"
             style="fill:none;stroke:#000000;stroke-width:30;stroke-linecap:butt;stroke-linejoin:miter;stroke-miterlimit:10;stroke-dasharray:none;stroke-opacity:1"
             id="path1404" /></g></g></g></g></svg>
