<?xml version="1.0" encoding="UTF-8"?>
<svg xmlns="http://www.w3.org/2000/svg" xmlns:xlink="http://www.w3.org/1999/xlink" version="1.1" id="Layer_1" x="0px" y="0px" viewBox="0 0 256 256" style="enable-background:new 0 0 256 256;" xml:space="preserve" width="512" height="512">
<g>
	<path d="M237.9259,174.5636c-2.6982-10.2054-11.4939-17.2651-21.703-17.9199c0.7648-3.6459,0.669-7.414-0.3002-11.0795   c-1.6476-6.2323-5.6238-11.4498-11.1958-14.6917c-5.5723-3.2417-12.0729-4.1194-18.3052-2.472   c-7.8217,2.068-13.7276,7.7727-16.3968,14.8168c-4.537-0.2136-11.5249,0.8925-17.5408,6.4515l4.0876,3.7155   c3.3683-2.9745,9.1482-5.5397,15.4382-4.4371c6.2901,1.1026,10.6216,4.799,13.0957,9.1176l4.7722-2.7339   c-3.1479-5.4945-8.2149-9.4564-14.2897-11.1959c2.2239-4.9638,6.5833-8.9218,12.2391-10.4171   c4.8117-1.2724,9.8313-0.5948,14.1338,1.9086c4.3022,2.5029,7.3721,6.5313,8.6442,11.3432   c1.0119,3.8272,0.7909,7.7983-0.6392,11.4842c-0.841,2.4108,1.274,3.8508,2.8325,3.7315   c9.1306-0.894,17.4617,4.9011,19.8099,13.7838c1.2724,4.8117,0.5946,9.831-1.9086,14.1332   c-2.5029,4.3022-6.8598,7.5273-11.5337,8.6898c-0.3002-1.4965-0.7144-2.9807-1.2541-4.4397   c-3.9864-10.7758-13.9721-18.2249-25.4394-18.9777l-0.3604,5.4882c9.3049,0.611,17.4069,6.6548,20.6414,15.3979   c4.5235,12.2278-1.7445,25.8562-13.9724,30.3797c-3.6188,1.3391-7.5289,1.7738-11.3303,1.2652   c-1.1038-0.2828-2.2857,0.148-2.9447,1.103c-2.6482,3.839-7.0066,6.1308-11.6588,6.1308c-6.6039,0-12.1648-4.5462-13.7203-10.673   c6.6268-4.09,11.0541-11.4159,11.0541-19.7585h-5.5c0,9.7622-7.942,17.7042-17.7042,17.7042   c-6.8532,0-13.1541-4.0184-16.0529-10.237c-0.4514-0.9689-1.4236-1.5882-2.4924-1.5882c-1.0689,0-2.041,0.6193-2.4925,1.5882   c-2.8988,6.2187-9.1996,10.237-16.0529,10.237c-9.7622,0-17.7042-7.942-17.7042-17.7042h-5.4998   c0,8.3427,4.4273,15.6685,11.0541,19.7585c-1.5555,6.1268-7.1164,10.673-13.7203,10.673c-4.6522,0-9.0106-2.2918-11.6588-6.1308   c-0.6436-0.9332-1.7835-1.3597-2.8655-1.1137c-3.8248,0.5264-7.7653,0.094-11.4095-1.2544   c-12.2278-4.5235-18.4959-18.1519-13.9724-30.3797c3.2345-8.7431,11.3365-14.7869,20.6414-15.3979l-0.3604-5.4882   c-11.4673,0.7528-21.453,8.2019-25.4394,18.9777c-0.5397,1.4591-0.9539,2.9432-1.2541,4.4398   c-5.1074-1.4027-9.0307-4.3877-11.5336-8.6899c-2.5032-4.3022-3.181-9.3215-1.9086-14.1335   c2.3482-8.8827,10.6772-14.6814,19.8099-13.7836c2.7749,0.1043,3.3749-2.5957,2.8325-3.7315   c-1.4301-3.6859-1.6511-7.657-0.6392-11.4843c1.2721-4.812,4.342-8.8403,8.6442-11.3432c4.3022-2.5027,9.3215-3.181,14.1338-1.9086   c5.6595,1.4963,10.0209,5.4586,12.2434,10.4271c-5.8324,1.6713-11.0471,5.5182-14.2941,11.1859l4.7722,2.7339   c5.1076-8.9149,16.5172-12.0122,25.4316-6.9051c1.1289,0.6468,2.1636,1.3954,3.1011,2.2264l4.0841-3.7122   c-5.8147-5.504-13.1044-6.6481-17.5306-6.4423c-2.6666-7.0506-8.5752-12.7618-16.4022-14.8311   c-6.2324-1.6479-12.7333-0.7699-18.3052,2.472c-5.572,3.2417-9.5482,8.4592-11.1958,14.6917   c-0.9692,3.6655-1.0651,7.4336-0.3002,11.0795c-10.2083,0.6555-19.0051,7.7153-21.703,17.9196   c-1.6479,6.2323-0.7699,12.7332,2.472,18.3052c3.2417,5.572,8.7803,9.9814,15.7193,11.4327   c-0.0262,4.2075,0.711,13.0987,9.1842,21.4106c7.8768,7.468,17.9268,8.338,22.5504,7.7876   c3.7189,4.4996,9.2657,7.1403,15.1523,7.1403c8.8143,0,16.2917-5.8324,18.7766-13.8406c2.2374,0.7202,4.6202,1.1132,7.0939,1.1132   c7.3485,0,14.2119-3.524,18.5453-9.2678c4.3334,5.7439,11.1968,9.2678,18.5453,9.2678c2.4737,0,4.8565-0.393,7.0939-1.1132   c2.2233,7.1652,8.4434,12.5887,16.0419,13.651c7.3772,1.1898,14.1681-2.4511,17.887-6.9507   c4.2802,0.3795,8.6351-0.2003,12.6897-1.7002c7.3012-2.7011,13.1135-8.0835,16.3665-15.1564   c1.8105-3.9364,2.7044-8.1341,2.6783-12.3417c5.6057-0.9712,12.5057-5.4712,15.7193-11.4326   C238.6958,187.2966,239.5737,180.7957,237.9259,174.5636z"/>
	<path d="M58.0967,88.2996c0.3094,1.2198,1.4072,2.0738,2.6657,2.0738h22.7353l0.7834,7.4054H63.1848   c-0.8183,0-3.0248,0.731-2.7027,3.2573l2.5094,13.3703c0.2441,1.3003,1.3796,2.2427,2.7027,2.2427h49.4956h75.9797   c1.3232,0,2.4586-0.9424,2.7027-2.2427l2.5094-13.3703c0.3384-2.4663-1.8844-3.2573-2.7026-3.2573h-21.0963l0.7831-7.4054h22.7356   c1.2585,0,2.3563-0.854,2.6657-2.0738l3.1165-12.2864l12.8324-19.2559c0,0,0.7875-0.99,0.7127-1.9481V22.907   c0-1.5187-1.2313-2.75-2.75-2.75H44.1851c-1.5187,0-2.75,1.2313-2.75,2.75v31.9021l13.5451,21.2041L58.0967,88.2996z    M193.9616,84.8733h-23.0705c-1.407,0-2.5867,1.0619-2.7347,2.4608l-1.3648,12.9054c-0.0822,0.7753,0.4084,3.0103,2.7348,3.0393   h20.8382l-1.4771,7.8703H67.9761l-1.4771-7.8703h20.8383c2.1627-0.209,2.9427-1.889,2.7347-3.0393l-1.3651-12.9054   c-0.148-1.3989-1.328-2.4608-2.7347-2.4608H62.9021l-1.9962-7.87h135.052L193.9616,84.8733z M46.9351,25.657h162.9934v26.4021   H46.9351V25.657z M207.5526,57.5591l-9.2549,13.9442H58.566l-9.2549-13.9442C49.3111,57.5591,207.5526,57.5591,207.5526,57.5591z"/>
	<path d="M94.2542,100.818c0.148,1.3992,1.328,2.4608,2.7347,2.4608h62.886c1.407,0,2.5867-1.0619,2.7347-2.4608l1.3648-12.9054   c0.1856-1.0428-0.5944-3.0393-2.7347-3.0393h-65.616c-2.3637-0.0435-2.8168,2.2639-2.7347,3.0393L94.2542,100.818z    M158.1835,90.3733l-0.7831,7.4054H99.4633l-0.7834-7.4054H158.1835z"/>
	<path d="M128.4316,159.0656c-6.6924,0-12.9991-2.5945-17.7582-7.3055l-3.8693,3.9091c5.7959,5.7369,13.4766,8.8964,21.6275,8.8964   s15.8316-3.1595,21.6275-8.8964l-3.8693-3.9091C141.4307,156.4711,135.124,159.0656,128.4316,159.0656z"/>
	<path d="M140.0477,136.3381c0-6.405-5.211-11.6161-11.6161-11.6161c-6.405,0-11.6161,5.211-11.6161,11.6161   c0,6.4052,5.211,11.6158,11.6161,11.6158S140.0477,142.7431,140.0477,136.3381z M122.3154,136.3381   c0-3.3725,2.7437-6.1161,6.1161-6.1161s6.1161,2.7436,6.1161,6.1161c0,3.3722-2.7436,6.1158-6.1161,6.1158   S122.3154,139.7103,122.3154,136.3381z"/>
	<path d="M128.4316,174.9345c-11.0728,0-21.5019-4.2495-29.4278-11.9639l-3.9672,3.8161   c8.9745,8.8001,20.818,13.6478,33.395,13.6478s24.4205-4.8477,33.395-13.6478l-3.9672-3.8161   C149.9335,170.6849,139.5043,174.9345,128.4316,174.9345z"/>
	<path d="M83.4163,177.9646c12.1849,11.7005,28.1077,18.1251,45.0155,18.1251s32.8306-6.4246,45.0155-18.1251l-3.9685-3.8172   c-11.1351,10.6152-25.645,16.4423-41.0471,16.4423s-29.9121-5.8271-41.0471-16.4423L83.4163,177.9646z"/>
</g>
</svg>
