<svg id="Circular_Glyph" height="512" viewBox="0 0 64 64" width="512" xmlns="http://www.w3.org/2000/svg" data-name="Circular Glyph"><path d="m33.89 31.45a.72107.72107 0 1 0 -1-1.02c-.31-.31-1.1-1.13-1.41-1.42a.71158.71158 0 0 0 -1.04.97c-.92.92-2.83 2.84-3.75 3.77l-.46-.46a.71439.71439 0 0 0 -1.01 1.01c.47.48 1.43005 1.43 1.9 1.9a.71541.71541 0 1 0 .96 1.06l.05-.05a2.70971 2.70971 0 0 0 2.07 1.01 2.57967 2.57967 0 0 0 2.49-3.16 2.227 2.227 0 0 0 1.2-3.61zm-2.88 5.01a1.12876 1.12876 0 0 1 -1.61 0l-1.71-1.7 1.61-1.61 1.71 1.71a1.13466 1.13466 0 0 1 0 1.6zm1.76-3a.84714.84714 0 0 1 -1.15 0l-1.31-1.32 1.14-1.14 1.32 1.31a.8272.8272 0 0 1 0 1.15z"/><path d="m36.7 27.3c-8.78-8.07-20.77 3.92-12.7 12.7a8.98026 8.98026 0 1 0 12.7-12.7zm-1 11.69c-7.38 6.79-17.47-3.31-10.69-10.69a7.559 7.559 0 0 1 10.69 10.69z"/><path d="m39.37 19.82a3.40134 3.40134 0 0 0 4.81 4.81 3.40134 3.40134 0 0 0 -4.81-4.81zm3.8 3.81a1.98373 1.98373 0 0 1 -2.8-2.81 1.98373 1.98373 0 0 1 2.8 2.81z"/><path d="m32 0a32 32 0 1 0 32 32 32.004 32.004 0 0 0 -32-32zm20.01 30.35a4.04764 4.04764 0 0 1 -1.2 2.88l-17.57 17.58a4.11653 4.11653 0 0 1 -5.78 0l-14.27-14.28a4.10434 4.10434 0 0 1 0-5.77l17.58-17.57a4.04753 4.04753 0 0 1 2.88-1.2h8.63a4.07057 4.07057 0 0 1 2.89 1.2l5.64 5.64a4.05359 4.05359 0 0 1 1.2 2.89z"/></svg>