<?xml version="1.0" encoding="iso-8859-1"?>
<!-- Generator: Adobe Illustrator 16.0.0, SVG Export Plug-In . SVG Version: 6.00 Build 0)  -->
<!DOCTYPE svg PUBLIC "-//W3C//DTD SVG 1.1//EN" "http://www.w3.org/Graphics/SVG/1.1/DTD/svg11.dtd">
<svg version="1.1" id="Capa_1" xmlns="http://www.w3.org/2000/svg" xmlns:xlink="http://www.w3.org/1999/xlink" x="0px" y="0px"
	 width="94.071px" height="94.071px" viewBox="0 0 94.071 94.071" style="enable-background:new 0 0 94.071 94.071;"
	 xml:space="preserve">
<g>
	<path d="M79.591,48.287c-0.048,0-0.091,0.025-0.142,0.032l-2.84-4.917c0.186-0.25,0.317-0.542,0.317-0.88
		c0-0.827-0.673-1.507-1.506-1.507c-0.606,0-1.119,0.365-1.359,0.883h-5.671c-0.239-0.518-0.752-0.883-1.359-0.883
		c-0.828,0-1.505,0.675-1.505,1.507c0,0.283,0.1,0.535,0.241,0.762l-1.086,1.885l-1.021-1.769c0.183-0.25,0.314-0.542,0.314-0.88
		c0-0.827-0.673-1.507-1.501-1.507c-0.606,0-1.122,0.365-1.359,0.883h-5.671c-0.237-0.518-0.752-0.883-1.359-0.883
		c-0.825,0-1.503,0.675-1.503,1.507c0,0.283,0.101,0.535,0.239,0.762l-2.896,5.013c-0.812,0.021-1.464,0.677-1.464,1.498
		c0,0.794,0.622,1.428,1.402,1.482l2.898,5.019c-0.104,0.205-0.18,0.429-0.18,0.676c0,0.825,0.673,1.5,1.508,1.5
		c0.52,0,0.953-0.277,1.225-0.684h1.823l-0.737,1.277c-0.81,0.022-1.465,0.68-1.465,1.496c0,0.794,0.623,1.424,1.403,1.482
		l2.901,5.019c-0.109,0.21-0.183,0.429-0.183,0.671c0,0.83,0.676,1.51,1.506,1.51c0.52,0,0.96-0.283,1.228-0.688h5.935
		c0.27,0.405,0.705,0.688,1.226,0.688c0.828,0,1.503-0.675,1.503-1.51c0-0.292-0.104-0.552-0.253-0.789l2.828-4.904
		c0.034,0.004,0.062,0.022,0.094,0.022c0.83,0,1.501-0.671,1.501-1.506c0-0.832-0.671-1.503-1.501-1.503
		c-0.05,0-0.094,0.022-0.142,0.029l-0.755-1.298h1.966c0.271,0.406,0.71,0.689,1.229,0.689c0.826,0,1.504-0.676,1.504-1.503
		c0-0.297-0.107-0.557-0.258-0.79l2.828-4.908c0.037,0.004,0.062,0.022,0.096,0.022c0.828,0,1.506-0.671,1.506-1.506
		C81.095,48.957,80.419,48.287,79.591,48.287z M64.682,47.487l0.804,1.391c-0.201,0.252-0.34,0.562-0.34,0.915
		c0,0.367,0.144,0.698,0.371,0.956l-0.83,1.441l-0.753-1.309c0.292-0.274,0.483-0.652,0.483-1.091c0-0.42-0.168-0.797-0.444-1.067
		L64.682,47.487z M55.519,56.623c-0.161-0.655-0.728-1.154-1.43-1.154c-0.144,0-0.278,0.048-0.415,0.082l-2.691-4.662
		c0.296-0.271,0.487-0.655,0.487-1.096c0-0.417-0.168-0.795-0.444-1.067l2.753-4.767c0.105,0.027,0.201,0.062,0.315,0.062
		c0.634,0,1.172-0.399,1.391-0.96h5.603c0.219,0.562,0.753,0.96,1.392,0.96c0.068,0,0.121-0.027,0.183-0.038l1.354,2.343
		l-1.141,1.97c-0.807,0.021-1.464,0.678-1.464,1.497c0,0.794,0.623,1.426,1.402,1.483l0.801,1.389h-1.69
		c-0.239-0.518-0.755-0.881-1.361-0.881c-0.83,0-1.506,0.674-1.506,1.502c0,0.287,0.101,0.538,0.242,0.766l-1.487,2.578h-2.288
		v-0.007H55.519z M63.737,53.819l-0.98,1.702c-0.096-0.019-0.183-0.053-0.283-0.053c-0.707,0-1.272,0.499-1.433,1.154h-1.893
		l1.1-1.896c0.103,0.022,0.198,0.062,0.31,0.062c0.639,0,1.175-0.401,1.392-0.961h1.788V53.819L63.737,53.819z M69.23,66.288
		c-0.096-0.023-0.183-0.06-0.283-0.06c-0.707,0-1.272,0.499-1.433,1.154H61.99c-0.157-0.655-0.726-1.154-1.43-1.154
		c-0.145,0-0.278,0.048-0.413,0.087l-2.691-4.663c0.294-0.275,0.485-0.659,0.485-1.095c0-0.42-0.166-0.794-0.444-1.067l0.985-1.704
		h2.769c0.27,0.406,0.707,0.685,1.228,0.685c0.828,0,1.503-0.671,1.503-1.503c0-0.293-0.104-0.555-0.253-0.79l0.958-1.66
		l1.026,1.774c-0.104,0.205-0.178,0.432-0.178,0.676c0,0.827,0.673,1.503,1.506,1.503c0.522,0,0.958-0.278,1.225-0.685h2.623
		l1.072,1.856c-0.201,0.254-0.34,0.566-0.34,0.92c0,0.369,0.146,0.693,0.369,0.958L69.23,66.288z M65.624,53.819h1.93
		c0.217,0.565,0.755,0.963,1.394,0.963c0.064,0,0.119-0.027,0.181-0.041l1.081,1.879h-1.745c-0.159-0.661-0.726-1.158-1.433-1.158
		c-0.144,0-0.278,0.05-0.412,0.082L65.624,53.819z M75.704,55.521c-0.096-0.019-0.183-0.053-0.283-0.053
		c-0.707,0-1.272,0.499-1.435,1.154h-2.434l-1.419-2.462c0.185-0.248,0.314-0.54,0.314-0.88c0-0.826-0.67-1.501-1.501-1.501
		c-0.606,0-1.122,0.36-1.361,0.881H65.75l0.798-1.388c0.039,0.005,0.062,0.019,0.096,0.019c0.828,0,1.506-0.671,1.506-1.506
		c0-0.832-0.676-1.504-1.506-1.504c-0.05,0-0.096,0.025-0.144,0.032l-1.149-1.993l1.368-2.373c0.103,0.028,0.203,0.063,0.312,0.063
		c0.637,0,1.178-0.399,1.392-0.96h5.603c0.219,0.561,0.755,0.96,1.396,0.96c0.06,0,0.119-0.028,0.183-0.038l2.824,4.894
		c-0.201,0.252-0.342,0.562-0.342,0.914c0,0.369,0.146,0.7,0.369,0.958L75.704,55.521z M27.845,59.433
		c0.6,0.402,1.427,0.698,2.375,0.838c0.39,0.055,0.792,0.096,1.223,0.096c0.424,0,0.832-0.041,1.222-0.096
		c0.945-0.144,1.774-0.438,2.37-0.838c-0.212,0.331-0.56,0.598-0.961,0.838c-0.694,0.41-1.6,0.684-2.63,0.684
		c-1.029,0-1.937-0.273-2.63-0.684C28.405,60.028,28.057,59.755,27.845,59.433z M35.069,52.67c0-0.215,0.054-0.415,0.136-0.593
		c0.229-0.502,0.724-0.845,1.304-0.845c0.583,0,1.079,0.343,1.308,0.845c0.081,0.178,0.134,0.378,0.134,0.593
		c0,0.794-0.644,1.437-1.44,1.437C35.713,54.106,35.069,53.464,35.069,52.67z M24.932,52.67c0-0.215,0.051-0.415,0.138-0.593
		c0.226-0.502,0.723-0.845,1.3-0.845c0.584,0,1.08,0.343,1.306,0.845c0.082,0.178,0.133,0.378,0.133,0.593
		c0,0.794-0.642,1.437-1.439,1.437C25.579,54.106,24.932,53.464,24.932,52.67z M90.728,84.267V27.451h-41.28l24.71-24.71L71.416,0
		l-24.38,24.381L22.661,0l-2.739,2.741l24.708,24.71H3.344v56.815h31.892v4.202H27.23v5.603h39.614v-5.603h-8.002v-4.202H90.728z
		 M19.868,51.675c0.154-0.615,1.993-3.731,7.364-3.731c0.983,0,2.042,0.105,3.145,0.315c2.184,0.414,3.983-0.589,5.089-2.724
		c0.062,0.348,0.372,2.088,0.925,2.864c1.373,1.936,3.583,1.707,4.09,1.562c0.405-0.114,0.738-0.292,1.025-0.507
		c0.631,1.013,0.916,1.88,0.962,2.188l-0.441,0.516h0.811c0.077,0,0.172,0,0.281-0.13l0.002,0.002
		c0.027-0.038,0.053-0.072,0.076-0.125c0.118-0.219,0.245-0.625,0.372-1.369c0.74,0.315,1.257,1.241,1.257,2.336
		c0,1.378-0.793,2.496-1.748,2.496c0,0,0,0-0.002,0c-0.04-0.014-0.1-0.041-0.175-0.051l-0.306-0.043l-0.101,0.292
		c-0.374,1.11-0.918,2.121-1.575,3.045c-1.221,1.704-2.882,3.029-4.792,3.871c-1.451,0.632-3.029,1.016-4.685,1.016
		c-1.776,0-3.472-0.415-5.006-1.146c-1.778-0.844-3.32-2.126-4.476-3.741c-0.657-0.924-1.201-1.935-1.577-3.045l-0.101-0.297
		l-0.31,0.048l-0.143,0.051c-0.977,0-1.772-1.118-1.772-2.5c0-0.758,0.25-1.442,0.669-1.9c0.162,0.536,0.307,0.828,0.435,0.99
		c0.002,0.004,0.004,0.014,0.004,0.014h0.005c0.155,0.187,0.29,0.183,0.4,0.183l0.508-0.11L19.868,51.675z M28.267,69.021
		l-1.581-5.748c1.48,0.611,3.081,0.98,4.753,0.98c1.552,0,3.041-0.324,4.433-0.854l-1.544,5.621l-1.5,5.447h-3.064L28.267,69.021z
		 M51.703,74.468c-0.486-4.517-2.445-8.586-5.389-11.728V51.205c0-9.152-6.66-16.581-14.874-16.581
		c-8.208,0-14.873,7.429-14.873,16.581V62.74c-2.944,3.144-4.905,7.213-5.391,11.728H9.159V33.265h75.754v41.207h-33.21V74.468z"/>
</g>
<g>
</g>
<g>
</g>
<g>
</g>
<g>
</g>
<g>
</g>
<g>
</g>
<g>
</g>
<g>
</g>
<g>
</g>
<g>
</g>
<g>
</g>
<g>
</g>
<g>
</g>
<g>
</g>
<g>
</g>
</svg>
