<?xml version="1.0" encoding="UTF-8" standalone="no"?><!DOCTYPE svg PUBLIC "-//W3C//DTD SVG 1.1//EN" "http://www.w3.org/Graphics/SVG/1.1/DTD/svg11.dtd"><svg width="100%" height="100%" viewBox="0 0 512 512" version="1.1" xmlns="http://www.w3.org/2000/svg" xmlns:xlink="http://www.w3.org/1999/xlink" xml:space="preserve" xmlns:serif="http://www.serif.com/" style="fill-rule:evenodd;clip-rule:evenodd;stroke-linejoin:round;stroke-miterlimit:2;"><path d="M392,16l-272,0c-57.028,0.066 -103.934,46.972 -104,104l0,272c0.066,57.028 46.972,103.934 104,104l272,0c57.028,-0.066 103.934,-46.972 104,-104l0,-272c-0.066,-57.028 -46.972,-103.934 -104,-104Zm88,376c-0.055,48.255 -39.745,87.945 -88,88l-272,0c-48.255,-0.055 -87.945,-39.745 -88,-88l0,-272c0.055,-48.255 39.745,-87.945 88,-88l272,0c48.255,0.055 87.945,39.745 88,88l0,272Z" style="fill-rule:nonzero;"/><path d="M256,424l-32,0l0,-16l-16,0l0,24c0,4.389 3.611,8 8,8l48,0c4.389,0 8,-3.611 8,-8l0,-24l-16,0l0,16Z" style="fill-rule:nonzero;"/><path d="M285,393.75l-40,-32c-2.917,-2.32 -7.083,-2.32 -10,0l-40,32c-1.897,1.518 -3.004,3.82 -3.004,6.25c0,4.391 3.613,8.004 8.004,8.004c1.817,-0 3.581,-0.619 5,-1.754l35,-28.008l35,28.008c1.419,1.135 3.183,1.754 5,1.754c4.391,-0 8.004,-3.613 8.004,-8.004c-0,-2.43 -1.107,-4.732 -3.004,-6.25Z" style="fill-rule:nonzero;"/><path d="M404,392.43l0,-0.43c0,-17.648 -12.562,-32 -28,-32c-15.438,0 -28,14.352 -28,32l0,0.43c-11.42,2.02 -19.866,11.973 -20,23.57c0,13.234 11.062,24 24.664,24l46.672,0c13.6,0 24.664,-10.766 24.664,-24c-0.134,-11.597 -8.58,-21.55 -20,-23.57Zm-4.664,31.57l-46.672,0c-4.773,0 -8.664,-3.586 -8.664,-8c0,-4.414 3.891,-8 8.664,-8c0.86,0.022 1.712,0.167 2.531,0.43c0.721,0.208 1.468,0.314 2.219,0.314c4.389,-0 8,-3.611 8,-8c0,-0.839 -0.132,-1.673 -0.391,-2.471c-0.668,-2.024 -1.013,-4.141 -1.023,-6.273c0,-8.672 5.492,-16 12,-16c6.508,0 12,7.328 12,16c-0.01,2.132 -0.355,4.249 -1.023,6.273c-0.259,0.798 -0.391,1.632 -0.391,2.471c-0,4.389 3.611,8 8,8c0.751,-0 1.498,-0.106 2.219,-0.314c0.819,-0.263 1.671,-0.408 2.531,-0.43c4.773,0 8.664,3.586 8.664,8c0,4.414 -3.891,8 -8.664,8Z" style="fill-rule:nonzero;"/><path d="M160,360c-39.482,0.043 -71.957,32.518 -72,72c0,4.389 3.611,8 8,8c39.482,-0.043 71.957,-32.518 72,-72c0,-4.389 -3.611,-8 -8,-8Zm-55.328,63.328c3.79,-23.955 22.701,-42.866 46.656,-46.656c-3.79,23.955 -22.701,42.866 -46.656,46.656Z" style="fill-rule:nonzero;"/><path d="M200,112l-64,0c-4.389,0 -8,3.611 -8,8c0,4.389 3.611,8 8,8l56,0l0,56l-56,0c-4.389,0 -8,3.611 -8,8l0,72c0,4.389 3.611,8 8,8l64,0c4.389,0 8,-3.611 8,-8c0,-4.389 -3.611,-8 -8,-8l-56,0l0,-56l56,0c4.389,0 8,-3.611 8,-8l0,-72c0,-4.389 -3.611,-8 -8,-8Z" style="fill-rule:nonzero;"/><path d="M304,112l-64,0c-4.389,0 -8,3.611 -8,8c0,4.389 3.611,8 8,8l56,0l0,56l-56,0c-4.389,0 -8,3.611 -8,8l0,72c0,4.389 3.611,8 8,8l64,0c4.389,0 8,-3.611 8,-8c0,-4.389 -3.611,-8 -8,-8l-56,0l0,-56l56,0c4.389,0 8,-3.611 8,-8l0,-72c0,-4.389 -3.611,-8 -8,-8Z" style="fill-rule:nonzero;"/><path d="M360,168c-13.166,0 -24,10.834 -24,24c0,13.166 10.834,24 24,24c13.166,0 24,-10.834 24,-24c-0.015,-13.16 -10.84,-23.985 -24,-24Zm0,32c-4.389,0 -8,-3.611 -8,-8c0,-4.389 3.611,-8 8,-8c4.389,0 8,3.611 8,8c-0.003,4.388 -3.612,7.997 -8,8Z" style="fill-rule:nonzero;"/><circle cx="360" cy="144" r="8"/><circle cx="360" cy="240" r="8"/><circle cx="360" cy="112" r="8"/><circle cx="360" cy="272" r="8"/><path d="M400,56l-288,0c-30.707,0.037 -55.963,25.293 -56,56l0,208c0,4.389 3.611,8 8,8l384,0c4.389,0 8,-3.611 8,-8l0,-208c-0.037,-30.707 -25.293,-55.963 -56,-56Zm40,256l-368,0l0,-200c0.026,-21.934 18.066,-39.974 40,-40l288,0c21.934,0.026 39.974,18.066 40,40l0,200Z" style="fill-rule:nonzero;"/></svg>