<svg id="Layer_1" enable-background="new 0 0 100 100" height="512" viewBox="0 0 100 100" width="512" xmlns="http://www.w3.org/2000/svg"><g><path d="m89 49h-5v-3.9c1.7.4 3.5.2 5.1-.7 2.4-1.3 3.9-3.8 3.9-6.5 0-2.5-1.2-4.8-3.3-6.2l-39.6-26.4c-.7-.4-1.5-.4-2.2 0l-39.6 26.4c-2.1 1.4-3.3 3.7-3.3 6.2 0 2.7 1.5 5.2 3.9 6.5 1.1.6 2.3.9 3.5.9.5 0 1.1-.1 1.6-.2v37.9c0 4.4 3.6 8 8 8h39.3c.8 2.3 3 4 5.7 4h22c3.3 0 6-2.7 6-6v-34c0-3.3-2.7-6-6-6zm-74.7-8.3c-1.1.7-2.4.8-3.5.2s-1.8-1.7-1.8-3c0-1.1.6-2.2 1.5-2.8l38.5-25.7 38.5 25.7c1 .6 1.5 1.7 1.5 2.8 0 1.3-.7 2.4-1.8 3s-2.4.5-3.5-.2l-33.6-22.4c-.7-.4-1.5-.4-2.2 0zm9.7 8.3v38h-2c-2.2 0-4-1.8-4-4v-39.9l31-20.7 31 20.7v5.9h-6c0-5.5-4.5-10-10-10h-30c-5.5 0-10 4.5-10 10zm37 38h-33v-23h33zm0-32v5h-33v-7h33.3c-.2.6-.3 1.3-.3 2zm-33-6c0-3.3 2.7-6 6-6h30c3.3 0 6 2.7 6 6zm63 40c0 1.1-.9 2-2 2h-22c-1.1 0-2-.9-2-2v-4h26zm0-8h-26v-26c0-1.1.9-2 2-2h22c1.1 0 2 .9 2 2z"/><path d="m80.6 69.6-1.4 1.4-1.2 1.2-1.2-1.2-1.4-1.4c-.8-.8-2-.8-2.8 0s-.8 2 0 2.8l4 4c.4.4.9.6 1.4.6s1-.2 1.4-.6l4-4c.8-.8.8-2 0-2.8s-2-.8-2.8 0z"/><path d="m79.4 57.6c-.8-.8-2-.8-2.8 0l-4 4c-.8.8-.8 2 0 2.8s2 .8 2.8 0l1.4-1.4 1.2-1.2 1.2 1.2 1.4 1.4c.4.4.9.6 1.4.6s1-.2 1.4-.6c.8-.8.8-2 0-2.8z"/></g></svg>